<svg width="462" height="57" viewBox="0 0 462 57" fill="none" xmlns="http://www.w3.org/2000/svg">
<g opacity="0.05">
<path d="M7.82162 34.5271C6.343 33.8355 5.12902 33.2769 5.12902 32.1483C5.12902 31.284 5.82094 30.6562 7.18475 30.6562C7.68712 30.6562 8.09751 30.7156 8.5223 30.7929C8.74439 30.8314 8.98024 30.8636 9.17574 30.8636C10.3685 30.8636 11.0416 30.1529 11.4895 28.8035L11.6741 28.2529C11.4833 28.1754 9.53546 27.3192 6.99613 27.3192C2.95504 27.3192 0.822044 29.9114 0.823296 32.5993C0.823296 33.9556 1.24808 34.9391 1.91341 35.7136C2.76986 36.7077 3.99042 37.3589 5.13215 37.9173C6.79751 38.7337 8.29927 39.3374 8.29927 40.5479C8.30052 41.6227 7.19039 42.233 5.70614 42.233C3.6723 42.233 1.89589 41.0719 1.66974 40.9317L0 44.0604C0.295911 44.2293 2.44643 45.5931 5.98547 45.5931C9.75599 45.5909 12.6119 43.4292 12.6119 40.1022C12.6119 36.7927 9.96557 35.5656 7.82162 34.5271ZM22.5712 36.0721L29.4106 27.6855H24.5378L19.0819 34.9231H19.0005V27.6858H14.9823L14.9845 45.4521H15.2228C16.9595 45.4521 19.0265 44.6475 19.0265 41.7475V37.668H19.1082L24.6698 45.2303H29.7822L22.5712 36.0721ZM29.6386 8.65369C28.2238 8.92082 26.1274 10.2052 26.1353 12.4752C26.1393 14.5366 27.8256 15.7868 27.831 18.4873C27.8388 20.5198 26.7186 21.8893 25.5068 22.6472C26.0442 22.5997 26.5833 22.5754 27.1228 22.5743C28.3608 22.5712 29.1069 22.6891 29.1529 22.6969L35.4981 14.9107C33.736 12.2722 31.6778 10.2252 29.6386 8.654" fill="#EA002C"/>
<path d="M34.9685 29.6802C35.7686 28.4368 35.869 26.4549 35.9363 24.4376C36.0123 22.5539 36.4042 21.1369 38.9235 21.1282C39.4806 21.1272 40.0127 21.2032 40.9749 21.2011C44.665 21.1854 47.0739 19.9145 48.5726 19.0803C45.5112 17.1281 41.0422 15.1339 35.498 14.91C35.1361 15.9297 32.3269 23.7426 32.1135 24.3735C32.1457 24.411 32.6378 24.9616 33.2524 26.0376C34.1596 27.5153 34.6463 28.7668 34.9685 29.6805" fill="#EA002C"/>
<path d="M21.5674 23.2989C21.2462 23.3001 21.0863 23.0871 21.0432 22.7174C20.4192 17.0236 19.798 11.3296 19.1795 5.63522C19.1451 5.31428 19.0656 4.72496 19.0647 4.51538C19.0635 4.17756 19.2843 4.00114 19.5433 3.99989C20.295 3.99676 24.3933 4.95675 28.7412 8.00563C27.4875 8.35753 25.2222 9.66098 25.2319 12.3589C25.2407 14.7481 26.9501 16.0625 26.9589 18.4579C26.9733 22.3545 22.4943 23.297 21.5674 23.2989ZM35.3329 30.7163C35.4014 30.8974 35.4652 31.0495 35.5303 31.1555C35.6307 31.3244 35.7599 31.4017 35.9213 31.4017C36.0214 31.4007 36.145 31.3663 36.2829 31.3047C36.6176 31.1502 49.867 24.983 51.8655 24.0615C52.1545 23.9226 52.7053 23.6764 52.8852 23.5704C53.0729 23.4634 53.1589 23.3076 53.1589 23.1487C53.1575 23.0564 53.1308 22.9663 53.0816 22.8881C52.8311 22.4846 51.5498 21.1239 49.4068 19.6375C47.7052 20.5743 45.0483 22.0232 41.0957 22.0386C40.1266 22.0408 39.908 21.9757 39.2461 21.9779C37.317 21.9841 36.8347 22.8099 36.7643 24.5016C36.7534 24.8216 36.7468 25.2507 36.7277 25.7231C36.667 27.2348 36.4884 29.3203 35.3329 30.7166V30.7163ZM56.0336 45.6914C54.5624 49.6675 52.6678 50.1817 51.0425 50.1817C49.8936 50.1817 49.0496 49.7713 48.9611 49.726L49.5748 47.8654C49.6233 47.8904 50.2445 48.2251 50.9355 48.2251C52.2264 48.2251 53.0363 47.5079 53.7526 45.2613C53.7526 45.2613 49.364 35.7083 49.3121 35.5892C49.3928 35.5641 49.918 35.4037 50.5173 35.4037C51.9374 35.4037 52.2508 36.2908 52.6162 37.177L54.9478 42.798H55.0151L57.358 35.5889H59.7875L56.0336 45.6914ZM88.1727 45.2138L84.7757 40.2787L88.102 35.449H85.2349L82.9202 38.99C82.2964 38.0109 81.7084 37.0875 81.5263 36.8003C81.0627 36.0887 80.6455 35.3705 79.5872 35.3915C79.4372 35.3939 79.2877 35.4102 79.1406 35.44C78.55 35.5482 78.0633 35.8019 77.9895 35.8394C78.027 35.8988 79.6182 38.1545 81.1409 40.3481L77.7952 45.2135H80.6589L82.9849 41.66L85.3112 45.2135L88.1727 45.2138ZM61.7607 38.7607V45.2294H64.1896V38.5057C64.3219 38.3844 65.1861 37.5601 66.1427 37.5601C67.392 37.5601 68.0395 38.4648 68.0395 39.6434V45.2294H70.4662V39.0353C70.4662 36.0956 68.2031 35.4443 66.9407 35.4443C65.4223 35.4443 64.3419 36.4015 64.0206 36.719C63.9171 36.3252 63.4545 35.6586 62.3941 35.6586C62.02 35.6586 61.5314 35.769 61.486 35.7812C61.5598 36.1466 61.7607 37.0127 61.7607 38.7607ZM75.8818 32.6632C75.8818 33.4656 75.213 34.1156 74.3841 34.1156C73.5567 34.1156 72.888 33.4656 72.888 32.6632C72.888 31.8577 73.5567 31.2043 74.3841 31.2043C75.213 31.2043 75.8818 31.8577 75.8818 32.6632ZM75.5871 45.2157H73.1795V35.5832H75.5871V45.2157ZM41.5599 36.6955C41.7297 36.5532 42.9678 35.4034 44.6904 35.4034C46.5753 35.4034 47.9654 36.3865 47.9654 38.7823V45.2297H45.4496V39.4717C45.4496 38.4113 44.8646 37.5892 43.7579 37.5892C42.7054 37.5892 41.8123 38.42 41.5599 38.6287V45.2297H39.0615V30.5236H39.5911C40.7885 30.5236 41.5599 31.3942 41.5599 32.5537V36.6955Z" fill="#FF7A00"/>
<path d="M169.872 32.01C169.224 32.634 168.516 33.066 167.748 33.306C166.98 33.546 166.158 33.666 165.282 33.666C164.502 33.666 163.794 33.546 163.158 33.306C162.522 33.078 161.976 32.724 161.52 32.244C161.064 31.764 160.71 31.17 160.458 30.462C160.206 29.754 160.08 28.92 160.08 27.96V25.998C160.08 25.05 160.206 24.222 160.458 23.514C160.71 22.806 161.064 22.212 161.52 21.732C161.988 21.252 162.54 20.892 163.176 20.652C163.812 20.412 164.514 20.292 165.282 20.292C166.182 20.292 166.968 20.406 167.64 20.634C168.312 20.85 168.954 21.198 169.566 21.678L168.648 23.136C168.06 22.656 167.496 22.338 166.956 22.182C166.428 22.026 165.87 21.948 165.282 21.948C164.79 21.948 164.334 22.032 163.914 22.2C163.506 22.368 163.146 22.626 162.834 22.974C162.534 23.322 162.3 23.766 162.132 24.306C161.964 24.846 161.88 25.488 161.88 26.232V27.726C161.88 28.47 161.964 29.112 162.132 29.652C162.3 30.192 162.534 30.636 162.834 30.984C163.146 31.332 163.506 31.59 163.914 31.758C164.334 31.926 164.79 32.01 165.282 32.01C165.906 32.01 166.53 31.914 167.154 31.722C167.778 31.53 168.36 31.17 168.9 30.642L169.872 32.01ZM174.418 24.108C174.358 23.976 174.304 23.85 174.256 23.73C174.208 23.598 174.16 23.466 174.112 23.334C174.064 23.202 174.01 23.052 173.95 22.884C173.89 22.716 173.824 22.524 173.752 22.308V33.468H172.06V20.49H174.688L178.288 28.986L181.798 20.49H184.408V33.468H182.698V22.308C182.638 22.548 182.578 22.752 182.518 22.92C182.47 23.076 182.422 23.22 182.374 23.352C182.338 23.484 182.296 23.61 182.248 23.73C182.2 23.85 182.146 23.976 182.086 24.108L178.99 31.308H177.478L174.418 24.108ZM191.493 32.046C192.417 32.046 193.107 31.86 193.563 31.488C194.031 31.116 194.265 30.672 194.265 30.156V29.868C194.265 29.58 194.217 29.328 194.121 29.112C194.025 28.896 193.863 28.704 193.635 28.536C193.407 28.368 193.113 28.218 192.753 28.086C192.393 27.942 191.949 27.816 191.421 27.708C190.809 27.576 190.239 27.426 189.711 27.258C189.183 27.078 188.727 26.856 188.343 26.592C187.959 26.316 187.653 25.98 187.425 25.584C187.209 25.176 187.101 24.678 187.101 24.09V23.766C187.101 23.322 187.191 22.896 187.371 22.488C187.551 22.068 187.827 21.696 188.199 21.372C188.571 21.048 189.033 20.79 189.585 20.598C190.149 20.394 190.803 20.292 191.547 20.292C192.339 20.292 193.059 20.388 193.707 20.58C194.355 20.772 194.955 21.054 195.507 21.426L194.661 22.812C194.181 22.488 193.695 22.254 193.203 22.11C192.711 21.966 192.165 21.894 191.565 21.894C190.749 21.894 190.095 22.074 189.603 22.434C189.123 22.794 188.883 23.232 188.883 23.748V24.036C188.883 24.336 188.949 24.594 189.081 24.81C189.213 25.014 189.405 25.194 189.657 25.35C189.909 25.506 190.221 25.644 190.593 25.764C190.965 25.872 191.391 25.98 191.871 26.088C192.675 26.268 193.341 26.478 193.869 26.718C194.409 26.946 194.841 27.21 195.165 27.51C195.489 27.81 195.717 28.146 195.849 28.518C195.993 28.89 196.065 29.298 196.065 29.742V30.066C196.065 30.666 195.945 31.188 195.705 31.632C195.477 32.076 195.159 32.454 194.751 32.766C194.343 33.066 193.851 33.288 193.275 33.432C192.711 33.588 192.099 33.666 191.439 33.666C190.515 33.666 189.663 33.516 188.883 33.216C188.115 32.928 187.461 32.568 186.921 32.136L187.821 30.678C188.061 30.858 188.337 31.032 188.649 31.2C188.961 31.368 189.279 31.518 189.603 31.65C189.927 31.77 190.251 31.866 190.575 31.938C190.911 32.01 191.217 32.046 191.493 32.046ZM202.747 20.49C204.535 20.49 205.891 20.97 206.815 21.93C207.739 22.878 208.201 24.252 208.201 26.052V27.906C208.201 29.706 207.751 31.086 206.851 32.046C205.951 32.994 204.583 33.468 202.747 33.468H198.445V20.49H202.747ZM200.227 31.884H202.585C203.161 31.884 203.683 31.812 204.151 31.668C204.619 31.512 205.015 31.272 205.339 30.948C205.675 30.624 205.933 30.204 206.113 29.688C206.293 29.172 206.383 28.548 206.383 27.816V26.142C206.383 25.41 206.293 24.786 206.113 24.27C205.933 23.754 205.675 23.334 205.339 23.01C205.015 22.674 204.619 22.434 204.151 22.29C203.683 22.134 203.161 22.056 202.585 22.056H200.227V31.884ZM215.265 26.106L220.791 33.468H218.523L214.041 27.402L212.619 28.932V33.468H210.837V20.49H212.619V26.7L218.307 20.49H220.485L215.265 26.106ZM224.63 27.888V21.426L222.758 22.524L222.002 21.246L224.864 19.644H226.214V27.888H224.63Z" fill="#0E306D"/>
<path d="M275.778 1.49C277.566 1.49 278.922 1.97 279.846 2.93C280.77 3.878 281.232 5.252 281.232 7.052V8.906C281.232 10.706 280.782 12.086 279.882 13.046C278.982 13.994 277.614 14.468 275.778 14.468H271.476V1.49H275.778ZM273.258 12.884H275.616C276.192 12.884 276.714 12.812 277.182 12.668C277.65 12.512 278.046 12.272 278.37 11.948C278.706 11.624 278.964 11.204 279.144 10.688C279.324 10.172 279.414 9.548 279.414 8.816V7.142C279.414 6.41 279.324 5.786 279.144 5.27C278.964 4.754 278.706 4.334 278.37 4.01C278.046 3.674 277.65 3.434 277.182 3.29C276.714 3.134 276.192 3.056 275.616 3.056H273.258V12.884ZM286.533 14.612C285.537 14.612 284.745 14.366 284.157 13.874C283.581 13.382 283.293 12.704 283.293 11.84V11.354C283.293 10.514 283.575 9.83 284.139 9.302C284.703 8.774 285.615 8.51 286.875 8.51H289.377V7.934C289.377 7.274 289.215 6.788 288.891 6.476C288.579 6.152 288.063 5.99 287.343 5.99C286.767 5.99 286.263 6.08 285.831 6.26C285.411 6.44 284.973 6.68 284.517 6.98L283.653 5.684C284.133 5.348 284.673 5.06 285.273 4.82C285.873 4.568 286.569 4.442 287.361 4.442C287.913 4.442 288.417 4.514 288.873 4.658C289.329 4.79 289.719 4.994 290.043 5.27C290.379 5.534 290.637 5.864 290.817 6.26C291.009 6.644 291.105 7.082 291.105 7.574V14.468H289.431V13.28H289.413C289.317 13.46 289.185 13.628 289.017 13.784C288.861 13.928 288.687 14.054 288.495 14.162C288.231 14.306 287.943 14.414 287.631 14.486C287.331 14.57 286.965 14.612 286.533 14.612ZM289.377 9.986H286.911C286.227 9.986 285.735 10.118 285.435 10.382C285.147 10.646 285.003 11.012 285.003 11.48V11.732C285.003 12.212 285.171 12.56 285.507 12.776C285.843 12.992 286.245 13.1 286.713 13.1C287.145 13.1 287.517 13.052 287.829 12.956C288.153 12.848 288.447 12.692 288.711 12.488C288.951 12.308 289.119 12.104 289.215 11.876C289.323 11.636 289.377 11.33 289.377 10.958V9.986ZM294.34 6.116H292.72V4.622H294.34V2.138H296.086V4.622H298.678V6.116H296.086V11.714C296.086 12.014 296.116 12.26 296.176 12.452C296.236 12.632 296.32 12.77 296.428 12.866C296.548 12.962 296.686 13.028 296.842 13.064C296.998 13.1 297.166 13.118 297.346 13.118C297.778 13.118 298.21 13.04 298.642 12.884L298.912 14.288C298.708 14.372 298.438 14.444 298.102 14.504C297.766 14.576 297.424 14.612 297.076 14.612C296.14 14.612 295.45 14.378 295.006 13.91C294.562 13.442 294.34 12.71 294.34 11.714V6.116ZM303.46 14.612C302.464 14.612 301.672 14.366 301.084 13.874C300.508 13.382 300.22 12.704 300.22 11.84V11.354C300.22 10.514 300.502 9.83 301.066 9.302C301.63 8.774 302.542 8.51 303.802 8.51H306.304V7.934C306.304 7.274 306.142 6.788 305.818 6.476C305.506 6.152 304.99 5.99 304.27 5.99C303.694 5.99 303.19 6.08 302.758 6.26C302.338 6.44 301.9 6.68 301.444 6.98L300.58 5.684C301.06 5.348 301.6 5.06 302.2 4.82C302.8 4.568 303.496 4.442 304.288 4.442C304.84 4.442 305.344 4.514 305.8 4.658C306.256 4.79 306.646 4.994 306.97 5.27C307.306 5.534 307.564 5.864 307.744 6.26C307.936 6.644 308.032 7.082 308.032 7.574V14.468H306.358V13.28H306.34C306.244 13.46 306.112 13.628 305.944 13.784C305.788 13.928 305.614 14.054 305.422 14.162C305.158 14.306 304.87 14.414 304.558 14.486C304.258 14.57 303.892 14.612 303.46 14.612ZM306.304 9.986H303.838C303.154 9.986 302.662 10.118 302.362 10.382C302.074 10.646 301.93 11.012 301.93 11.48V11.732C301.93 12.212 302.098 12.56 302.434 12.776C302.77 12.992 303.172 13.1 303.64 13.1C304.072 13.1 304.444 13.052 304.756 12.956C305.08 12.848 305.374 12.692 305.638 12.488C305.878 12.308 306.046 12.104 306.142 11.876C306.25 11.636 306.304 11.33 306.304 10.958V9.986ZM325.506 14.468H323.634L322.266 10.652H317.298L315.93 14.468H314.112L318.936 1.49H320.664L325.506 14.468ZM317.838 9.122H321.726L320.646 6.08C320.55 5.816 320.466 5.588 320.394 5.396C320.322 5.192 320.256 5 320.196 4.82C320.136 4.628 320.07 4.43 319.998 4.226C319.938 4.022 319.866 3.77 319.782 3.47C319.686 3.77 319.608 4.028 319.548 4.244C319.488 4.448 319.428 4.64 319.368 4.82C319.308 5 319.242 5.192 319.17 5.396C319.11 5.588 319.032 5.816 318.936 6.08L317.838 9.122ZM335.385 14.468H333.639V8.348C333.639 7.52 333.465 6.92 333.117 6.548C332.769 6.176 332.229 5.99 331.497 5.99C331.197 5.99 330.897 6.044 330.597 6.152C330.309 6.248 330.045 6.398 329.805 6.602C329.577 6.794 329.385 7.04 329.229 7.34C329.085 7.64 329.013 7.982 329.013 8.366V14.468H327.267V4.622H328.959V5.864H328.977C329.277 5.408 329.673 5.06 330.165 4.82C330.657 4.568 331.245 4.442 331.929 4.442C332.409 4.442 332.859 4.514 333.279 4.658C333.699 4.802 334.065 5.018 334.377 5.306C334.689 5.594 334.935 5.96 335.115 6.404C335.295 6.848 335.385 7.364 335.385 7.952V14.468ZM340.779 14.612C339.783 14.612 338.991 14.366 338.403 13.874C337.827 13.382 337.539 12.704 337.539 11.84V11.354C337.539 10.514 337.821 9.83 338.385 9.302C338.949 8.774 339.861 8.51 341.121 8.51H343.623V7.934C343.623 7.274 343.461 6.788 343.137 6.476C342.825 6.152 342.309 5.99 341.589 5.99C341.013 5.99 340.509 6.08 340.077 6.26C339.657 6.44 339.219 6.68 338.763 6.98L337.899 5.684C338.379 5.348 338.919 5.06 339.519 4.82C340.119 4.568 340.815 4.442 341.607 4.442C342.159 4.442 342.663 4.514 343.119 4.658C343.575 4.79 343.965 4.994 344.289 5.27C344.625 5.534 344.883 5.864 345.063 6.26C345.255 6.644 345.351 7.082 345.351 7.574V14.468H343.677V13.28H343.659C343.563 13.46 343.431 13.628 343.263 13.784C343.107 13.928 342.933 14.054 342.741 14.162C342.477 14.306 342.189 14.414 341.877 14.486C341.577 14.57 341.211 14.612 340.779 14.612ZM343.623 9.986H341.157C340.473 9.986 339.981 10.118 339.681 10.382C339.393 10.646 339.249 11.012 339.249 11.48V11.732C339.249 12.212 339.417 12.56 339.753 12.776C340.089 12.992 340.491 13.1 340.959 13.1C341.391 13.1 341.763 13.052 342.075 12.956C342.399 12.848 342.693 12.692 342.957 12.488C343.197 12.308 343.365 12.104 343.461 11.876C343.569 11.636 343.623 11.33 343.623 10.958V9.986ZM349.72 0.86V14.468H347.974V0.86H349.72ZM355.929 12.488L358.521 4.622H360.357L355.245 18.536L353.661 17.978L354.939 14.612L351.357 4.622H353.247L355.857 12.488H355.929ZM362.614 6.116H360.994V4.622H362.614V2.138H364.36V4.622H366.952V6.116H364.36V11.714C364.36 12.014 364.39 12.26 364.45 12.452C364.51 12.632 364.594 12.77 364.702 12.866C364.822 12.962 364.96 13.028 365.116 13.064C365.272 13.1 365.44 13.118 365.62 13.118C366.052 13.118 366.484 13.04 366.916 12.884L367.186 14.288C366.982 14.372 366.712 14.444 366.376 14.504C366.04 14.576 365.698 14.612 365.35 14.612C364.414 14.612 363.724 14.378 363.28 13.91C362.836 13.442 362.614 12.71 362.614 11.714V6.116ZM370.798 4.622V14.468H369.052V4.622H370.798ZM370.852 1.094V3.002H368.998V1.094H370.852ZM377.4 4.442C378.216 4.442 378.882 4.544 379.398 4.748C379.926 4.952 380.394 5.21 380.802 5.522L379.974 6.836C379.518 6.5 379.092 6.278 378.696 6.17C378.312 6.05 377.88 5.99 377.4 5.99C377.076 5.99 376.764 6.044 376.464 6.152C376.164 6.26 375.9 6.434 375.672 6.674C375.444 6.902 375.258 7.196 375.114 7.556C374.982 7.916 374.916 8.348 374.916 8.852V10.094C374.916 10.622 374.982 11.078 375.114 11.462C375.258 11.834 375.444 12.14 375.672 12.38C375.912 12.608 376.182 12.776 376.482 12.884C376.794 12.992 377.112 13.046 377.436 13.046C378.084 13.046 378.618 12.962 379.038 12.794C379.47 12.626 379.86 12.41 380.208 12.146L381.054 13.478C380.706 13.766 380.238 14.024 379.65 14.252C379.062 14.492 378.318 14.612 377.418 14.612C376.05 14.612 374.994 14.216 374.25 13.424C373.518 12.632 373.152 11.528 373.152 10.112V8.87C373.152 8.162 373.254 7.538 373.458 6.998C373.662 6.446 373.944 5.984 374.304 5.612C374.676 5.228 375.12 4.94 375.636 4.748C376.164 4.544 376.752 4.442 377.4 4.442ZM385.874 13.1C386.522 13.1 387.026 12.986 387.386 12.758C387.746 12.53 387.926 12.218 387.926 11.822V11.678C387.926 11.474 387.896 11.3 387.836 11.156C387.776 11.012 387.662 10.886 387.494 10.778C387.326 10.67 387.098 10.574 386.81 10.49C386.522 10.394 386.144 10.298 385.676 10.202C385.136 10.094 384.656 9.962 384.236 9.806C383.816 9.65 383.462 9.464 383.174 9.248C382.886 9.02 382.664 8.75 382.508 8.438C382.364 8.126 382.292 7.754 382.292 7.322V7.106C382.292 6.77 382.364 6.44 382.508 6.116C382.652 5.792 382.874 5.51 383.174 5.27C383.474 5.018 383.852 4.82 384.308 4.676C384.776 4.52 385.328 4.442 385.964 4.442C386.636 4.442 387.26 4.52 387.836 4.676C388.424 4.82 388.964 5.066 389.456 5.414L388.682 6.728C388.358 6.488 387.968 6.296 387.512 6.152C387.068 6.008 386.594 5.936 386.09 5.936C385.358 5.936 384.83 6.05 384.506 6.278C384.194 6.494 384.038 6.776 384.038 7.124V7.286C384.038 7.67 384.2 7.958 384.524 8.15C384.848 8.33 385.394 8.492 386.162 8.636C386.762 8.744 387.284 8.876 387.728 9.032C388.172 9.188 388.538 9.386 388.826 9.626C389.114 9.854 389.33 10.13 389.474 10.454C389.618 10.778 389.69 11.168 389.69 11.624V11.858C389.69 12.242 389.6 12.602 389.42 12.938C389.252 13.274 389.006 13.568 388.682 13.82C388.358 14.06 387.962 14.252 387.494 14.396C387.038 14.54 386.522 14.612 385.946 14.612C385.118 14.612 384.368 14.504 383.696 14.288C383.024 14.072 382.454 13.784 381.986 13.424L382.796 12.056C383.24 12.356 383.714 12.608 384.218 12.812C384.722 13.004 385.274 13.1 385.874 13.1ZM398.133 1.49V12.938H404.343V14.468H396.351V1.49H398.133ZM407.905 4.622V14.468H406.159V4.622H407.905ZM407.959 1.094V3.002H406.105V1.094H407.959ZM412.509 5.756C412.821 5.264 413.229 4.922 413.733 4.73C414.249 4.538 414.777 4.442 415.317 4.442C416.565 4.442 417.519 4.808 418.179 5.54C418.839 6.26 419.169 7.292 419.169 8.636V10.382C419.169 11.054 419.073 11.654 418.881 12.182C418.689 12.698 418.419 13.136 418.071 13.496C417.735 13.856 417.327 14.132 416.847 14.324C416.367 14.516 415.839 14.612 415.263 14.612C414.519 14.612 413.925 14.48 413.481 14.216C413.037 13.964 412.707 13.664 412.491 13.316H412.455V14.468H410.763V0.86H412.509V5.756ZM412.491 10.958C412.491 11.21 412.551 11.468 412.671 11.732C412.803 11.984 412.983 12.212 413.211 12.416C413.451 12.608 413.727 12.77 414.039 12.902C414.351 13.022 414.699 13.082 415.083 13.082C415.827 13.082 416.403 12.824 416.811 12.308C417.231 11.792 417.441 11.066 417.441 10.13V8.924C417.441 7.988 417.231 7.262 416.811 6.746C416.391 6.23 415.815 5.972 415.083 5.972C414.723 5.972 414.387 6.032 414.075 6.152C413.763 6.272 413.487 6.44 413.247 6.656C413.019 6.872 412.833 7.136 412.689 7.448C412.557 7.748 412.491 8.09 412.491 8.474V10.958ZM426.85 6.332C426.682 6.26 426.496 6.206 426.292 6.17C426.1 6.122 425.884 6.098 425.644 6.098C425.32 6.098 425.008 6.164 424.708 6.296C424.42 6.416 424.168 6.596 423.952 6.836C423.736 7.064 423.562 7.34 423.43 7.664C423.298 7.988 423.232 8.342 423.232 8.726V14.468H421.486V4.622H423.178V6.188H423.196C423.484 5.636 423.856 5.21 424.312 4.91C424.78 4.598 425.374 4.442 426.094 4.442C426.526 4.442 426.952 4.508 427.372 4.64L426.85 6.332ZM431.658 14.612C430.662 14.612 429.87 14.366 429.282 13.874C428.706 13.382 428.418 12.704 428.418 11.84V11.354C428.418 10.514 428.7 9.83 429.264 9.302C429.828 8.774 430.74 8.51 432 8.51H434.502V7.934C434.502 7.274 434.34 6.788 434.016 6.476C433.704 6.152 433.188 5.99 432.468 5.99C431.892 5.99 431.388 6.08 430.956 6.26C430.536 6.44 430.098 6.68 429.642 6.98L428.778 5.684C429.258 5.348 429.798 5.06 430.398 4.82C430.998 4.568 431.694 4.442 432.486 4.442C433.038 4.442 433.542 4.514 433.998 4.658C434.454 4.79 434.844 4.994 435.168 5.27C435.504 5.534 435.762 5.864 435.942 6.26C436.134 6.644 436.23 7.082 436.23 7.574V14.468H434.556V13.28H434.538C434.442 13.46 434.31 13.628 434.142 13.784C433.986 13.928 433.812 14.054 433.62 14.162C433.356 14.306 433.068 14.414 432.756 14.486C432.456 14.57 432.09 14.612 431.658 14.612ZM434.502 9.986H432.036C431.352 9.986 430.86 10.118 430.56 10.382C430.272 10.646 430.128 11.012 430.128 11.48V11.732C430.128 12.212 430.296 12.56 430.632 12.776C430.968 12.992 431.37 13.1 431.838 13.1C432.27 13.1 432.642 13.052 432.954 12.956C433.278 12.848 433.572 12.692 433.836 12.488C434.076 12.308 434.244 12.104 434.34 11.876C434.448 11.636 434.502 11.33 434.502 10.958V9.986ZM444.217 6.332C444.049 6.26 443.863 6.206 443.659 6.17C443.467 6.122 443.251 6.098 443.011 6.098C442.687 6.098 442.375 6.164 442.075 6.296C441.787 6.416 441.535 6.596 441.319 6.836C441.103 7.064 440.929 7.34 440.797 7.664C440.665 7.988 440.599 8.342 440.599 8.726V14.468H438.853V4.622H440.545V6.188H440.563C440.851 5.636 441.223 5.21 441.679 4.91C442.147 4.598 442.741 4.442 443.461 4.442C443.893 4.442 444.319 4.508 444.739 4.64L444.217 6.332ZM449.761 12.488L452.353 4.622H454.189L449.077 18.536L447.493 17.978L448.771 14.612L445.189 4.622H447.079L449.689 12.488H449.761Z" fill="#0E306D"/>
<path d="M276.872 52.01C276.224 52.634 275.516 53.066 274.748 53.306C273.98 53.546 273.158 53.666 272.282 53.666C271.502 53.666 270.794 53.546 270.158 53.306C269.522 53.078 268.976 52.724 268.52 52.244C268.064 51.764 267.71 51.17 267.458 50.462C267.206 49.754 267.08 48.92 267.08 47.96V45.998C267.08 45.05 267.206 44.222 267.458 43.514C267.71 42.806 268.064 42.212 268.52 41.732C268.988 41.252 269.54 40.892 270.176 40.652C270.812 40.412 271.514 40.292 272.282 40.292C273.182 40.292 273.968 40.406 274.64 40.634C275.312 40.85 275.954 41.198 276.566 41.678L275.648 43.136C275.06 42.656 274.496 42.338 273.956 42.182C273.428 42.026 272.87 41.948 272.282 41.948C271.79 41.948 271.334 42.032 270.914 42.2C270.506 42.368 270.146 42.626 269.834 42.974C269.534 43.322 269.3 43.766 269.132 44.306C268.964 44.846 268.88 45.488 268.88 46.232V47.726C268.88 48.47 268.964 49.112 269.132 49.652C269.3 50.192 269.534 50.636 269.834 50.984C270.146 51.332 270.506 51.59 270.914 51.758C271.334 51.926 271.79 52.01 272.282 52.01C272.906 52.01 273.53 51.914 274.154 51.722C274.778 51.53 275.36 51.17 275.9 50.642L276.872 52.01ZM284.64 46.772L288.834 53.468H286.728L283.434 47.906L280.14 53.468H278.124L282.318 46.7L278.394 40.49H280.518L283.578 45.602L286.62 40.49H288.618L284.64 46.772ZM292.637 40.49V51.938H298.847V53.468H290.855V40.49H292.637ZM314.577 52.01C313.929 52.634 313.221 53.066 312.453 53.306C311.685 53.546 310.863 53.666 309.987 53.666C309.207 53.666 308.499 53.546 307.863 53.306C307.227 53.078 306.681 52.724 306.225 52.244C305.769 51.764 305.415 51.17 305.163 50.462C304.911 49.754 304.785 48.92 304.785 47.96V45.998C304.785 45.05 304.911 44.222 305.163 43.514C305.415 42.806 305.769 42.212 306.225 41.732C306.693 41.252 307.245 40.892 307.881 40.652C308.517 40.412 309.219 40.292 309.987 40.292C310.887 40.292 311.673 40.406 312.345 40.634C313.017 40.85 313.659 41.198 314.271 41.678L313.353 43.136C312.765 42.656 312.201 42.338 311.661 42.182C311.133 42.026 310.575 41.948 309.987 41.948C309.495 41.948 309.039 42.032 308.619 42.2C308.211 42.368 307.851 42.626 307.539 42.974C307.239 43.322 307.005 43.766 306.837 44.306C306.669 44.846 306.585 45.488 306.585 46.232V47.726C306.585 48.47 306.669 49.112 306.837 49.652C307.005 50.192 307.239 50.636 307.539 50.984C307.851 51.332 308.211 51.59 308.619 51.758C309.039 51.926 309.495 52.01 309.987 52.01C310.611 52.01 311.235 51.914 311.859 51.722C312.483 51.53 313.065 51.17 313.605 50.642L314.577 52.01ZM319.123 44.108C319.063 43.976 319.009 43.85 318.961 43.73C318.913 43.598 318.865 43.466 318.817 43.334C318.769 43.202 318.715 43.052 318.655 42.884C318.595 42.716 318.529 42.524 318.457 42.308V53.468H316.765V40.49H319.393L322.993 48.986L326.503 40.49H329.113V53.468H327.403V42.308C327.343 42.548 327.283 42.752 327.223 42.92C327.175 43.076 327.127 43.22 327.079 43.352C327.043 43.484 327.001 43.61 326.953 43.73C326.905 43.85 326.851 43.976 326.791 44.108L323.695 51.308H322.183L319.123 44.108ZM336.198 52.046C337.122 52.046 337.812 51.86 338.268 51.488C338.736 51.116 338.97 50.672 338.97 50.156V49.868C338.97 49.58 338.922 49.328 338.826 49.112C338.73 48.896 338.568 48.704 338.34 48.536C338.112 48.368 337.818 48.218 337.458 48.086C337.098 47.942 336.654 47.816 336.126 47.708C335.514 47.576 334.944 47.426 334.416 47.258C333.888 47.078 333.432 46.856 333.048 46.592C332.664 46.316 332.358 45.98 332.13 45.584C331.914 45.176 331.806 44.678 331.806 44.09V43.766C331.806 43.322 331.896 42.896 332.076 42.488C332.256 42.068 332.532 41.696 332.904 41.372C333.276 41.048 333.738 40.79 334.29 40.598C334.854 40.394 335.508 40.292 336.252 40.292C337.044 40.292 337.764 40.388 338.412 40.58C339.06 40.772 339.66 41.054 340.212 41.426L339.366 42.812C338.886 42.488 338.4 42.254 337.908 42.11C337.416 41.966 336.87 41.894 336.27 41.894C335.454 41.894 334.8 42.074 334.308 42.434C333.828 42.794 333.588 43.232 333.588 43.748V44.036C333.588 44.336 333.654 44.594 333.786 44.81C333.918 45.014 334.11 45.194 334.362 45.35C334.614 45.506 334.926 45.644 335.298 45.764C335.67 45.872 336.096 45.98 336.576 46.088C337.38 46.268 338.046 46.478 338.574 46.718C339.114 46.946 339.546 47.21 339.87 47.51C340.194 47.81 340.422 48.146 340.554 48.518C340.698 48.89 340.77 49.298 340.77 49.742V50.066C340.77 50.666 340.65 51.188 340.41 51.632C340.182 52.076 339.864 52.454 339.456 52.766C339.048 53.066 338.556 53.288 337.98 53.432C337.416 53.588 336.804 53.666 336.144 53.666C335.22 53.666 334.368 53.516 333.588 53.216C332.82 52.928 332.166 52.568 331.626 52.136L332.526 50.678C332.766 50.858 333.042 51.032 333.354 51.2C333.666 51.368 333.984 51.518 334.308 51.65C334.632 51.77 334.956 51.866 335.28 51.938C335.616 52.01 335.922 52.046 336.198 52.046ZM351.952 40.49C353.74 40.49 355.096 40.97 356.02 41.93C356.944 42.878 357.406 44.252 357.406 46.052V47.906C357.406 49.706 356.956 51.086 356.056 52.046C355.156 52.994 353.788 53.468 351.952 53.468H347.65V40.49H351.952ZM349.432 51.884H351.79C352.366 51.884 352.888 51.812 353.356 51.668C353.824 51.512 354.22 51.272 354.544 50.948C354.88 50.624 355.138 50.204 355.318 49.688C355.498 49.172 355.588 48.548 355.588 47.816V46.142C355.588 45.41 355.498 44.786 355.318 44.27C355.138 43.754 354.88 43.334 354.544 43.01C354.22 42.674 353.824 42.434 353.356 42.29C352.888 42.134 352.366 42.056 351.79 42.056H349.432V51.884ZM363.696 44.936C363.336 44.936 363 45.002 362.688 45.134C362.388 45.254 362.124 45.428 361.896 45.656C361.68 45.872 361.506 46.142 361.374 46.466C361.254 46.778 361.194 47.12 361.194 47.492V47.744H366.126V47.42C366.126 46.664 365.91 46.064 365.478 45.62C365.046 45.164 364.452 44.936 363.696 44.936ZM367.584 52.532C367.152 52.832 366.636 53.084 366.036 53.288C365.436 53.504 364.686 53.612 363.786 53.612C363.174 53.612 362.604 53.522 362.076 53.342C361.56 53.174 361.104 52.91 360.708 52.55C360.324 52.178 360.018 51.704 359.79 51.128C359.574 50.552 359.466 49.868 359.466 49.076V47.96C359.466 47.216 359.568 46.562 359.772 45.998C359.988 45.434 360.282 44.966 360.654 44.594C361.038 44.21 361.488 43.922 362.004 43.73C362.52 43.538 363.084 43.442 363.696 43.442C364.956 43.442 365.958 43.826 366.702 44.594C367.446 45.362 367.818 46.448 367.818 47.852V49.166H361.194V49.238C361.194 50.174 361.44 50.888 361.932 51.38C362.424 51.86 363.066 52.1 363.858 52.1C364.506 52.1 365.058 52.022 365.514 51.866C365.982 51.71 366.426 51.494 366.846 51.218L367.584 52.532ZM373.426 51.83L376 43.622H377.836L374.506 53.468H372.274L368.908 43.622H370.798L373.39 51.83H373.426ZM381.282 43.622V53.468H379.536V43.622H381.282ZM381.336 40.094V42.002H379.482V40.094H381.336ZM387.884 43.442C388.7 43.442 389.366 43.544 389.882 43.748C390.41 43.952 390.878 44.21 391.286 44.522L390.458 45.836C390.002 45.5 389.576 45.278 389.18 45.17C388.796 45.05 388.364 44.99 387.884 44.99C387.56 44.99 387.248 45.044 386.948 45.152C386.648 45.26 386.384 45.434 386.156 45.674C385.928 45.902 385.742 46.196 385.598 46.556C385.466 46.916 385.4 47.348 385.4 47.852V49.094C385.4 49.622 385.466 50.078 385.598 50.462C385.742 50.834 385.928 51.14 386.156 51.38C386.396 51.608 386.666 51.776 386.966 51.884C387.278 51.992 387.596 52.046 387.92 52.046C388.568 52.046 389.102 51.962 389.522 51.794C389.954 51.626 390.344 51.41 390.692 51.146L391.538 52.478C391.19 52.766 390.722 53.024 390.134 53.252C389.546 53.492 388.802 53.612 387.902 53.612C386.534 53.612 385.478 53.216 384.734 52.424C384.002 51.632 383.636 50.528 383.636 49.112V47.87C383.636 47.162 383.738 46.538 383.942 45.998C384.146 45.446 384.428 44.984 384.788 44.612C385.16 44.228 385.604 43.94 386.12 43.748C386.648 43.544 387.236 43.442 387.884 43.442ZM397.025 44.936C396.665 44.936 396.329 45.002 396.017 45.134C395.717 45.254 395.453 45.428 395.225 45.656C395.009 45.872 394.835 46.142 394.703 46.466C394.583 46.778 394.523 47.12 394.523 47.492V47.744H399.455V47.42C399.455 46.664 399.239 46.064 398.807 45.62C398.375 45.164 397.781 44.936 397.025 44.936ZM400.913 52.532C400.481 52.832 399.965 53.084 399.365 53.288C398.765 53.504 398.015 53.612 397.115 53.612C396.503 53.612 395.933 53.522 395.405 53.342C394.889 53.174 394.433 52.91 394.037 52.55C393.653 52.178 393.347 51.704 393.119 51.128C392.903 50.552 392.795 49.868 392.795 49.076V47.96C392.795 47.216 392.897 46.562 393.101 45.998C393.317 45.434 393.611 44.966 393.983 44.594C394.367 44.21 394.817 43.922 395.333 43.73C395.849 43.538 396.413 43.442 397.025 43.442C398.285 43.442 399.287 43.826 400.031 44.594C400.775 45.362 401.147 46.448 401.147 47.852V49.166H394.523V49.238C394.523 50.174 394.769 50.888 395.261 51.38C395.753 51.86 396.395 52.1 397.187 52.1C397.835 52.1 398.387 52.022 398.843 51.866C399.311 51.71 399.755 51.494 400.175 51.218L400.913 52.532ZM412.28 40.49C414.068 40.49 415.424 40.97 416.348 41.93C417.272 42.878 417.734 44.252 417.734 46.052V47.906C417.734 49.706 417.284 51.086 416.384 52.046C415.484 52.994 414.116 53.468 412.28 53.468H407.978V40.49H412.28ZM409.76 51.884H412.118C412.694 51.884 413.216 51.812 413.684 51.668C414.152 51.512 414.548 51.272 414.872 50.948C415.208 50.624 415.466 50.204 415.646 49.688C415.826 49.172 415.916 48.548 415.916 47.816V46.142C415.916 45.41 415.826 44.786 415.646 44.27C415.466 43.754 415.208 43.334 414.872 43.01C414.548 42.674 414.152 42.434 413.684 42.29C413.216 42.134 412.694 42.056 412.118 42.056H409.76V51.884ZM425.663 45.332C425.495 45.26 425.309 45.206 425.105 45.17C424.913 45.122 424.697 45.098 424.457 45.098C424.133 45.098 423.821 45.164 423.521 45.296C423.233 45.416 422.981 45.596 422.765 45.836C422.549 46.064 422.375 46.34 422.243 46.664C422.111 46.988 422.045 47.342 422.045 47.726V53.468H420.299V43.622H421.991V45.188H422.009C422.297 44.636 422.669 44.21 423.125 43.91C423.593 43.598 424.187 43.442 424.907 43.442C425.339 43.442 425.765 43.508 426.185 43.64L425.663 45.332ZM429.604 43.622V53.468H427.858V43.622H429.604ZM429.658 40.094V42.002H427.804V40.094H429.658ZM435.811 51.83L438.385 43.622H440.221L436.891 53.468H434.659L431.293 43.622H433.183L435.775 51.83H435.811ZM445.593 44.936C445.233 44.936 444.897 45.002 444.585 45.134C444.285 45.254 444.021 45.428 443.793 45.656C443.577 45.872 443.403 46.142 443.271 46.466C443.151 46.778 443.091 47.12 443.091 47.492V47.744H448.023V47.42C448.023 46.664 447.807 46.064 447.375 45.62C446.943 45.164 446.349 44.936 445.593 44.936ZM449.481 52.532C449.049 52.832 448.533 53.084 447.933 53.288C447.333 53.504 446.583 53.612 445.683 53.612C445.071 53.612 444.501 53.522 443.973 53.342C443.457 53.174 443.001 52.91 442.605 52.55C442.221 52.178 441.915 51.704 441.687 51.128C441.471 50.552 441.363 49.868 441.363 49.076V47.96C441.363 47.216 441.465 46.562 441.669 45.998C441.885 45.434 442.179 44.966 442.551 44.594C442.935 44.21 443.385 43.922 443.901 43.73C444.417 43.538 444.981 43.442 445.593 43.442C446.853 43.442 447.855 43.826 448.599 44.594C449.343 45.362 449.715 46.448 449.715 47.852V49.166H443.091V49.238C443.091 50.174 443.337 50.888 443.829 51.38C444.321 51.86 444.963 52.1 445.755 52.1C446.403 52.1 446.955 52.022 447.411 51.866C447.879 51.71 448.323 51.494 448.743 51.218L449.481 52.532ZM457.338 45.332C457.17 45.26 456.984 45.206 456.78 45.17C456.588 45.122 456.372 45.098 456.132 45.098C455.808 45.098 455.496 45.164 455.196 45.296C454.908 45.416 454.656 45.596 454.44 45.836C454.224 46.064 454.05 46.34 453.918 46.664C453.786 46.988 453.72 47.342 453.72 47.726V53.468H451.974V43.622H453.666V45.188H453.684C453.972 44.636 454.344 44.21 454.8 43.91C455.268 43.598 455.862 43.442 456.582 43.442C457.014 43.442 457.44 43.508 457.86 43.64L457.338 45.332Z" fill="#0E306D"/>
<line x1="264" y1="27.5" x2="462" y2="27.5" stroke="#0E306D"/>
</g>
</svg>
