<svg width="86" height="45" viewBox="0 0 86 45" fill="none" xmlns="http://www.w3.org/2000/svg">
<path d="M7.6214 29.7457C6.18062 29.0718 4.9977 28.5275 4.9977 27.4278C4.9977 26.5856 5.67191 25.9739 7.00083 25.9739C7.49034 25.9739 7.89023 26.0318 8.30414 26.1071C8.52055 26.1446 8.75037 26.176 8.94087 26.176C10.1031 26.176 10.759 25.4835 11.1955 24.1686L11.3753 23.6321C11.1894 23.5565 9.29138 22.7223 6.81704 22.7223C2.87936 22.7223 0.800947 25.2482 0.802166 27.8673C0.802166 29.1889 1.21608 30.1472 1.86438 30.9018C2.69892 31.8705 3.88824 32.5051 5.00075 33.0491C6.62349 33.8447 8.08682 34.4329 8.08682 35.6125C8.08804 36.6598 7.00632 37.2544 5.56005 37.2544C3.57826 37.2544 1.84732 36.123 1.62695 35.9865L-6.10352e-05 39.0351C0.288277 39.1996 2.38376 40.5286 5.83224 40.5286C9.50627 40.5264 12.2891 38.42 12.2891 35.1781C12.2891 31.9534 9.71048 30.7577 7.6214 29.7457ZM21.9935 31.2511L28.6579 23.0792H23.9098L18.5935 30.1316H18.5142V23.0795H14.5988L14.601 40.3911H14.8332C16.5254 40.3911 18.5395 39.6072 18.5395 36.7814V32.8062H18.6191L24.0384 40.175H29.02L21.9935 31.2511ZM28.8801 4.53442C27.5015 4.79472 25.4588 6.04622 25.4664 8.25813C25.4703 10.2667 27.1135 11.485 27.1187 14.1163C27.1263 16.0969 26.0348 17.4313 24.854 18.1698C25.3776 18.1236 25.903 18.0999 26.4286 18.0988C27.635 18.0958 28.3619 18.2107 28.4068 18.2183L34.5896 10.6313C32.8726 8.06032 30.8671 6.06573 28.8801 4.53473" fill="#EA002C"/>
<path d="M34.0735 25.0231C34.8531 23.8115 34.951 21.8803 35.0165 19.9147C35.0906 18.0792 35.4725 16.6985 37.9273 16.6899C38.4702 16.689 38.9886 16.7631 39.9262 16.7609C43.5219 16.7457 45.8691 15.5073 47.3294 14.6944C44.3463 12.7922 39.9917 10.8491 34.5895 10.6309C34.2368 11.6245 31.4994 19.2374 31.2916 19.8522C31.323 19.8888 31.8024 20.4252 32.4013 21.4737C33.2852 22.9136 33.7595 24.1331 34.0735 25.0234" fill="#EA002C"/>
<path d="M21.0155 18.8051C20.7024 18.8063 20.5467 18.5987 20.5046 18.2385C19.8966 12.6904 19.2913 7.14211 18.6886 1.59349C18.6551 1.28077 18.5777 0.706528 18.5768 0.502314C18.5756 0.173132 18.7908 0.00122661 19.0431 7.41974e-06C19.7756 -0.00304055 23.769 0.932383 28.0057 3.90324C26.7841 4.24614 24.5767 5.51623 24.5862 8.14511C24.5947 10.4732 26.2604 11.7539 26.269 14.0881C26.283 17.8849 21.9186 18.8033 21.0155 18.8051ZM34.4287 26.0328C34.4954 26.2092 34.5576 26.3574 34.621 26.4607C34.7189 26.6253 34.8447 26.7006 35.002 26.7006C35.0996 26.6997 35.2199 26.6661 35.3544 26.6061C35.6805 26.4555 48.5908 20.4461 50.5382 19.5482C50.8198 19.4129 51.3565 19.173 51.5318 19.0697C51.7147 18.9654 51.7985 18.8136 51.7985 18.6588C51.7971 18.5689 51.7711 18.481 51.7232 18.4049C51.4791 18.0117 50.2306 16.6858 48.1424 15.2374C46.4843 16.1503 43.8954 17.5621 40.044 17.5771C39.0997 17.5792 38.8867 17.5158 38.2417 17.5179C36.362 17.524 35.892 18.3287 35.8234 19.977C35.8128 20.2888 35.8064 20.707 35.7878 21.1673C35.7287 22.6404 35.5546 24.6724 34.4287 26.0331V26.0328ZM54.5996 40.6246C53.1661 44.4989 51.32 45 49.7362 45C48.6167 45 47.7944 44.6001 47.7081 44.5559L48.3061 42.743C48.3534 42.7674 48.9587 43.0935 49.632 43.0935C50.8899 43.0935 51.679 42.3946 52.377 40.2055C52.377 40.2055 48.1007 30.897 48.0501 30.7809C48.1287 30.7565 48.6405 30.6002 49.2245 30.6002C50.6083 30.6002 50.9137 31.4646 51.2697 32.328L53.5416 37.8053H53.6072L55.8901 30.7806H58.2575L54.5996 40.6246ZM85.9163 40.1592L82.6062 35.3504L85.8474 30.6443H83.0536L80.7981 34.0947C80.1904 33.1406 79.6173 32.2409 79.44 31.9611C78.9882 31.2677 78.5816 30.5678 77.5505 30.5883C77.4043 30.5906 77.2586 30.6065 77.1153 30.6355C76.5398 30.741 76.0655 30.9882 75.9936 31.0247C76.0302 31.0826 77.5807 33.2805 79.0644 35.4181L75.8043 40.1589H78.5948L80.8612 36.6964L83.128 40.1589L85.9163 40.1592ZM60.1801 33.8712V40.1744H62.5469V33.6228C62.6758 33.5046 63.518 32.7014 64.45 32.7014C65.6674 32.7014 66.2983 33.5829 66.2983 34.7314V40.1744H68.6629V34.1388C68.6629 31.2744 66.4577 30.6398 65.2276 30.6398C63.7481 30.6398 62.6953 31.5725 62.3823 31.8818C62.2814 31.4981 61.8306 30.8486 60.7973 30.8486C60.4328 30.8486 59.9567 30.9562 59.9125 30.968C59.9844 31.324 60.1801 32.168 60.1801 33.8712ZM73.9399 27.9298C73.9399 28.7116 73.2882 29.345 72.4805 29.345C71.6743 29.345 71.0227 28.7116 71.0227 27.9298C71.0227 27.145 71.6743 26.5082 72.4805 26.5082C73.2882 26.5082 73.9399 27.145 73.9399 27.9298ZM73.6528 40.161H71.3067V30.7751H73.6528V40.161ZM40.4963 31.859C40.6618 31.7203 41.8682 30.5998 43.5467 30.5998C45.3834 30.5998 46.7379 31.5578 46.7379 33.8923V40.1748H44.2865V34.564C44.2865 33.5308 43.7165 32.7298 42.6381 32.7298C41.6125 32.7298 40.7423 33.5393 40.4963 33.7426V40.1748H38.0619V25.845H38.5779C39.7447 25.845 40.4963 26.6933 40.4963 27.8231V31.859Z" fill="#FF7A00"/>
</svg>
