<svg width="199" height="90" viewBox="0 0 199 90" fill="none" xmlns="http://www.w3.org/2000/svg">
<path fill-rule="evenodd" clip-rule="evenodd" d="M114.993 26.783C114.903 26.5967 114.866 26.501 114.818 26.4105C113.544 23.9838 112.276 21.5624 110.991 19.141C110.864 18.8962 110.88 18.7525 111.055 18.545C113.077 16.1768 115.089 13.798 117.106 11.4192C117.175 11.3341 117.239 11.2489 117.265 11.0999L115.498 11.5629C113.051 12.2122 110.609 12.8614 108.167 13.516C107.939 13.5745 107.838 13.5107 107.721 13.3191C106.331 10.9935 104.94 8.67323 103.544 6.35297C103.469 6.23057 103.395 6.11349 103.241 6.01238C103.13 6.6297 103.013 7.25234 102.907 7.86966L101.744 14.4313C101.702 14.6655 101.643 14.905 101.622 15.1391C101.601 15.3626 101.49 15.4478 101.283 15.5116C98.4002 16.4163 95.5232 17.3317 92.6462 18.247C92.5188 18.2896 92.3967 18.3375 92.2587 18.4599C94.6155 19.3965 96.967 20.3384 99.361 21.291C99.276 21.3602 99.2177 21.4134 99.154 21.456C97.6836 22.4086 96.208 23.3611 94.7376 24.3244C94.5624 24.4415 94.4244 24.4574 94.2227 24.3669C92.4657 23.574 90.6981 22.797 88.9358 22.0041C88.1449 21.6529 87.4336 21.1792 86.8816 20.5034C85.6289 18.9654 85.8784 17.2199 87.5451 16.1556C88.0918 15.8043 88.7129 15.5436 89.3286 15.3413C92.1526 14.4207 94.9818 13.532 97.811 12.6379C98.0499 12.5634 98.156 12.457 98.2038 12.2015C98.5807 10.0143 98.9735 7.82708 99.3663 5.63986C99.5786 4.46909 99.6901 3.2717 100.258 2.20204C100.476 1.79227 100.736 1.38782 101.049 1.04191C102.174 -0.208694 103.74 -0.256589 104.929 0.935473C105.333 1.33992 105.678 1.81355 105.975 2.29783C107.286 4.43716 108.571 6.59245 109.855 8.74774C110.004 9.00318 110.142 9.0564 110.423 8.97657C113.581 8.13042 116.74 7.29491 119.898 6.45408C120.551 6.28379 121.209 6.21993 121.878 6.34233C123.332 6.61373 123.969 7.72597 123.481 9.13622C123.258 9.78015 122.871 10.323 122.435 10.8338C120.232 13.4362 118.03 16.0385 115.816 18.6301C115.636 18.843 115.63 18.9973 115.758 19.2315C117.079 21.7274 118.385 24.2233 119.696 26.7245C120.01 27.3205 120.248 27.9431 120.259 28.6296C120.275 30.1889 119.134 31.4661 117.589 31.6949C116.724 31.8227 115.917 31.6364 115.105 31.3863C113.125 30.7743 111.145 30.1676 109.16 29.5716C108.974 29.5184 108.905 29.4439 108.873 29.247C108.645 27.8473 108.395 26.4531 108.157 25.0534C108.151 25.0162 108.162 24.9736 108.167 24.8885C110.423 25.5164 112.663 26.1338 114.993 26.783Z" fill="#E25C26"/>
<path fill-rule="evenodd" clip-rule="evenodd" d="M111.134 47.1652C109.351 47.1598 107.562 47.1545 105.779 47.1598C105.545 47.1598 105.412 47.0907 105.28 46.8884C103.167 43.6635 101.044 40.4385 98.9205 37.2189C98.8515 37.1178 98.7825 37.0167 98.6604 36.8464C98.2039 40.3268 97.758 43.7273 97.3121 47.1386H92.6357C92.6888 46.6809 92.7365 46.2392 92.7949 45.8028C93.2514 42.3064 93.7079 38.8154 94.1697 35.319C94.605 31.9823 95.0456 28.6403 95.4861 25.3036C95.4967 25.2025 95.5658 25.0801 95.6454 25.0269C97.2537 23.9732 98.8674 22.9354 100.481 21.8871C100.502 21.8711 100.539 21.8711 100.619 21.8445C100.131 25.575 99.6477 29.2789 99.1593 32.9828C99.1806 32.9935 99.1965 33.0094 99.2177 33.0254C101.75 30.2102 104.282 27.395 106.872 24.5213L107.074 25.6921C107.254 26.7511 107.429 27.8154 107.626 28.8745C107.663 29.0873 107.61 29.2204 107.467 29.3694C105.832 31.0883 104.197 32.8125 102.567 34.5314C102.498 34.6059 102.429 34.6858 102.344 34.7709C102.397 34.8561 102.44 34.9359 102.493 35.0104L110.943 46.8991C110.996 46.9683 111.065 47.0268 111.129 47.0907C111.134 47.1226 111.134 47.1439 111.134 47.1652ZM55.723 36.8623C55.654 36.4951 55.601 35.963 55.4417 35.4627C54.6561 33.0414 52.1825 31.7109 49.6134 32.3123C46.8001 32.9669 44.7883 35.186 44.4964 38.065C44.2788 40.1937 45.4253 42.2479 47.5539 43.0142C49.2684 43.6369 50.9139 43.3761 52.4479 42.4555C54.4756 41.2368 55.5797 39.4221 55.723 36.8623ZM43.3658 45.8667C43.2277 46.9097 43.095 47.8889 42.9676 48.8734C42.7978 50.1773 42.6279 51.4864 42.4634 52.7902C42.4421 52.9445 42.3997 53.0084 42.2351 53.0084C40.9506 53.0031 39.666 53.0031 38.3814 53.0031C38.3549 53.0031 38.323 52.9871 38.254 52.9658C38.3337 52.3485 38.408 51.7312 38.4876 51.1139C38.7689 48.9479 39.0556 46.782 39.3422 44.6161C39.6713 42.1415 39.9314 39.6509 40.3507 37.1923C41.0939 32.8338 44.783 29.082 49.1091 28.1454C51.6146 27.6026 54.0191 27.8527 56.2061 29.2683C58.3877 30.6785 59.6404 32.7274 59.9271 35.3031C60.3305 38.9431 58.9928 41.9659 56.4131 44.4671C54.7198 46.1115 52.6921 47.1545 50.3512 47.5058C47.9413 47.8676 45.6748 47.4685 43.6471 46.0423C43.5728 45.9891 43.4931 45.9465 43.3658 45.8667ZM41.2744 25.1599C39.8359 26.2349 38.4451 27.2726 37.0544 28.3104C36.8315 27.9538 36.6298 27.6026 36.3909 27.2726C35.7858 26.4265 35.032 25.7932 33.9439 25.7134C33.0362 25.6495 32.2559 25.9475 31.6401 26.6234C31.0881 27.2247 31.0138 28.0762 31.5287 28.7574C32.0966 29.5024 32.723 30.2102 33.3547 30.902C34.411 32.0462 35.5097 33.1478 36.5608 34.3026C37.5162 35.351 38.2753 36.5271 38.5088 37.9586C38.7902 39.6616 38.4504 41.2847 37.6436 42.7854C36.1573 45.558 33.8111 47.1652 30.7218 47.6654C29.3576 47.8889 27.9935 47.841 26.6611 47.4525C24.8935 46.931 23.662 45.7656 22.8711 44.1265C22.5898 43.5464 22.3775 42.9344 22.1227 42.3118C23.6727 41.4816 25.1748 40.6727 26.7036 39.8531C26.7567 39.9809 26.7938 40.0873 26.8416 40.1884C27.1017 40.7099 27.314 41.2634 27.6378 41.7477C28.5933 43.1739 30.1379 43.6049 31.7038 42.9025C32.1072 42.7215 32.4947 42.4661 32.8238 42.1734C33.8324 41.274 34.0235 40.0234 33.275 38.8952C32.8451 38.246 32.309 37.6659 31.7834 37.0805C30.536 35.6916 29.2356 34.3452 28.0147 32.9296C27.176 31.9504 26.6027 30.8116 26.4223 29.5024C26.2259 28.0762 26.5072 26.7298 27.2503 25.5271C29.0922 22.5416 31.7675 20.9877 35.308 21.1154C37.3251 21.1899 38.9335 22.1372 40.1809 23.7071C40.5525 24.1701 40.8975 24.6543 41.2744 25.1599ZM75.4692 41.1942C75.2357 42.9929 75.0127 44.7012 74.7845 46.4095C74.7739 46.4946 74.7049 46.6117 74.6305 46.649C71.1484 48.2668 66.5569 48.0432 63.6958 44.781C62.1565 43.0302 61.5142 40.9547 61.6097 38.6451C61.8327 33.2968 66.2543 28.6243 71.5465 27.9751C74.6359 27.5919 77.3483 28.4328 79.445 30.8382C80.8729 32.4773 81.5311 34.4356 81.4355 36.5963C81.3719 38.0225 81.1489 39.4434 80.9684 40.8643C80.719 42.8759 80.4429 44.8875 80.1775 46.8991C80.1669 46.9683 80.1563 47.0428 80.1351 47.1332H75.9682C76.0213 46.6702 76.0744 46.2179 76.1327 45.7656C76.4353 43.44 76.7644 41.125 77.0298 38.7941C77.1944 37.3466 77.0935 35.9044 76.43 34.5634C75.7293 33.1371 74.5456 32.3815 72.9956 32.2165C69.7842 31.8759 66.7321 34.111 66.0473 37.2774C65.5961 39.3689 66.3074 41.3698 67.9689 42.4821C69.5878 43.5624 71.3236 43.5624 73.0859 42.8652C73.983 42.514 74.742 41.9499 75.4692 41.1942ZM93.0179 28.3795C92.8268 29.827 92.641 31.2533 92.4499 32.7114C91.5687 32.7114 90.7035 32.7061 89.8383 32.7114C89.1376 32.7167 88.5006 33.1691 88.2883 33.8236C88.2034 34.0791 88.1769 34.3558 88.1397 34.6219C87.6991 37.948 87.2639 41.274 86.8286 44.6054C86.7171 45.4463 86.611 46.2818 86.4995 47.1332H82.1628C82.2424 46.4946 82.322 45.872 82.4016 45.2547C82.683 43.0994 82.9643 40.9441 83.2509 38.7888C83.5004 36.9262 83.718 35.053 84.01 33.1957C84.3975 30.7051 86.8711 28.4913 89.3818 28.3849C90.5814 28.337 91.7811 28.3795 93.0179 28.3795Z" fill="#3D3B3E"/>
<path d="M145.618 33.8159H143.81C143.743 32.7112 143.417 31.8492 142.831 31.2299C141.994 30.3762 140.789 29.9494 139.215 29.9494C137.793 29.9494 136.68 30.3009 135.876 31.0039C135.19 31.6232 134.847 32.4183 134.847 33.3891C134.847 34.9123 135.834 35.8831 137.809 36.3016L141.174 37.0046C142.814 37.3561 144.003 37.8833 144.739 38.5863C145.576 39.4065 145.994 40.4694 145.994 41.7749C145.994 43.5325 145.316 44.905 143.961 45.8925C142.789 46.7629 141.283 47.1981 139.441 47.1981C136.914 47.1981 135.039 46.4114 133.817 44.838C133.081 43.9007 132.688 42.57 132.637 40.846H134.445C134.495 44.0597 136.186 45.6666 139.517 45.6666C141.04 45.6666 142.228 45.2816 143.082 44.5116C143.835 43.8421 144.212 42.9801 144.212 41.9256C144.212 41.0385 143.919 40.3438 143.333 39.8417C142.764 39.3228 141.81 38.9211 140.471 38.6365L137.257 37.9335C134.445 37.331 133.039 35.8245 133.039 33.4142C133.039 31.7739 133.675 30.5018 134.947 29.5979C136.052 28.8112 137.491 28.4179 139.266 28.4179C141.693 28.4179 143.459 29.1376 144.563 30.5771C145.183 31.3805 145.534 32.4601 145.618 33.8159Z" fill="#3D3B3E"/>
<path d="M161.963 44.9134L163.996 46.8968L162.942 47.9513L160.858 45.8674L160.682 45.9679C159.326 46.788 157.845 47.1981 156.238 47.1981C153.56 47.1981 151.451 46.2273 149.911 44.2857C148.572 42.5951 147.903 40.4359 147.903 37.808C147.903 34.7951 148.765 32.4183 150.489 30.6775C151.995 29.1711 153.903 28.4179 156.213 28.4179C158.891 28.4179 161 29.3887 162.54 31.3303C163.879 33.0376 164.549 35.1968 164.549 37.808C164.515 40.8376 163.653 43.2061 161.963 44.9134ZM160.783 43.7333C162.071 42.344 162.733 40.3689 162.766 37.808C162.766 35.2805 162.088 33.2887 160.732 31.8325C159.561 30.5771 158.063 29.9494 156.238 29.9494C154.129 29.9494 152.472 30.7612 151.267 32.3848C150.212 33.7908 149.685 35.5986 149.685 37.808C149.685 40.3355 150.363 42.3273 151.719 43.7835C152.891 45.0389 154.389 45.6666 156.213 45.6666C157.301 45.6666 158.33 45.4071 159.301 44.8882L159.678 44.6874L157.368 42.3775L158.372 41.3983L160.783 43.7333Z" fill="#3D3B3E"/>
<path d="M169.153 28.8196V45.2649H177.84V46.7964H167.37V28.8196H169.153Z" fill="#3D3B3E"/>
<path d="M7.95064 84.0122C10.7602 76.7536 13.5734 69.4985 16.39 62.2469C14.6111 62.2469 12.8321 62.2469 11.0532 62.2469C7.58003 71.2251 4.11039 80.2068 0.644287 89.192C4.6116 89.1851 8.57539 89.1816 12.5356 89.1816C13.1992 87.455 13.8628 85.7284 14.5264 84.0019C12.338 84.0088 10.1461 84.0122 7.95064 84.0122ZM40.808 69.1774C41.2951 67.9653 42.4175 67.0226 43.8682 67.0226C45.3506 67.0226 45.7213 68.0171 45.2659 69.2085C44.9271 70.0856 44.5918 70.9592 44.26 71.8294C46.0319 71.8294 47.8037 71.8294 49.5756 71.8294C49.9215 70.9454 50.2639 70.0614 50.6027 69.1774C52.4346 64.5674 50.3698 61.8221 45.933 61.8221C41.5386 61.8221 37.3031 64.5674 35.4818 69.1774C33.7875 73.5146 32.0933 77.8449 30.3991 82.1682C28.6307 86.7368 30.6744 89.5546 35.0476 89.5546C39.4632 89.5649 43.6988 86.7471 45.4777 82.1682C46.6637 79.1571 47.8461 76.1355 49.025 73.1037C46.3636 73.1106 43.6988 73.1106 41.0304 73.1037C40.3527 74.8302 39.6785 76.5603 39.0079 78.2938C39.8974 78.2869 40.7904 78.2869 41.6869 78.2938C41.1786 79.5922 40.6739 80.8871 40.1727 82.1786C39.6856 83.3906 38.5525 84.3852 37.0701 84.3748C35.6194 84.3852 35.217 83.3906 35.7041 82.1786C37.4054 77.8483 39.1067 73.5146 40.808 69.1774ZM62.1023 89.1816C65.6602 80.1965 69.2251 71.2148 72.7971 62.2365C71.0182 62.2434 69.2428 62.2434 67.4709 62.2365C66.0308 65.8554 64.5907 69.4813 63.1506 73.114C61.3787 73.114 59.6033 73.114 57.8244 73.114C59.2645 69.4813 60.701 65.8554 62.1341 62.2365C60.3622 62.2365 58.5868 62.2365 56.8078 62.2365C53.2641 71.2217 49.7239 80.2068 46.1872 89.192C47.952 89.192 49.7203 89.1885 51.4922 89.1816C52.9252 85.5489 54.3583 81.9161 55.7913 78.2834C57.5632 78.2903 59.3351 78.2903 61.1069 78.2834C59.6668 81.9161 58.2303 85.5489 56.7972 89.1816C58.5621 89.1816 60.3304 89.1816 62.1023 89.1816ZM88.0981 67.4266C88.7899 65.7001 89.4782 63.9735 90.1629 62.2469C85.405 62.2469 80.6435 62.2434 75.8785 62.2365C75.1937 63.9631 74.509 65.6966 73.8242 67.437C75.3138 67.437 76.8033 67.437 78.2928 67.437C75.3985 74.6887 72.5077 81.9403 69.6204 89.192C71.3923 89.192 73.1607 89.1885 74.9255 89.1816C77.8198 81.9369 80.7176 74.6887 83.619 67.437C85.1156 67.437 86.6086 67.4335 88.0981 67.4266ZM98.3694 89.1816C101.998 80.1965 105.626 71.2148 109.255 62.2365C107.476 62.2434 105.697 62.2469 103.918 62.2469C102.887 64.7953 101.853 67.3507 100.815 69.9129C99.9824 72.6893 99.1494 75.4691 98.3164 78.2523C98.4082 72.9068 98.4999 67.5717 98.5917 62.2469C96.8128 62.24 95.0339 62.24 93.2549 62.2469C89.6547 71.2182 86.0545 80.1999 82.4542 89.192C84.2261 89.1851 85.9944 89.1816 87.7593 89.1816C88.7899 86.6332 89.817 84.0813 90.8406 81.5259C91.6736 78.7496 92.5066 75.9732 93.3396 73.1969C93.2549 78.5286 93.1631 83.8603 93.0643 89.192C94.8362 89.192 96.6045 89.1885 98.3694 89.1816ZM131.196 89.1816C134.867 80.1965 138.541 71.2182 142.219 62.2469C140.44 62.2469 138.661 62.2434 136.882 62.2365C135.837 64.7919 134.789 67.3507 133.737 69.9129C132.89 72.6893 132.039 75.4656 131.185 78.242C131.312 72.9103 131.436 67.5751 131.556 62.2365C129.777 62.2434 127.998 62.2434 126.219 62.2365C122.569 71.2148 118.923 80.1999 115.281 89.192C117.045 89.192 118.814 89.1885 120.586 89.1816C121.623 86.6332 122.665 84.0778 123.709 81.5156C124.556 78.7461 125.404 75.9698 126.251 73.1865C126.131 78.5182 126.011 83.8499 125.891 89.1816C127.655 89.1816 129.424 89.1816 131.196 89.1816ZM148.233 69.167C148.742 67.9757 149.885 67.0123 151.325 67.0226C152.818 67.0123 153.168 68.0068 152.691 69.2188C152.338 70.0821 151.985 70.9489 151.632 71.8191C153.404 71.8191 155.176 71.8191 156.948 71.8191C157.308 70.9351 157.668 70.0545 158.028 69.1774C159.945 64.5778 157.933 61.8221 153.496 61.8221C149.102 61.8221 144.813 64.5778 142.907 69.167C141.128 73.5111 139.349 77.8449 137.57 82.1682C135.717 86.7368 137.708 89.5649 142.081 89.5649C146.497 89.5649 150.785 86.7368 152.659 82.1682C153.895 79.1571 155.134 76.139 156.376 73.114C153.708 73.1071 151.039 73.1071 148.371 73.114C147.665 74.8337 146.959 76.5603 146.253 78.2938C147.15 78.2869 148.043 78.2869 148.932 78.2938C148.403 79.5922 147.873 80.8836 147.344 82.1682C146.836 83.3803 145.681 84.3852 144.199 84.3852C142.759 84.3852 142.367 83.3906 142.886 82.1682C144.665 77.8449 146.447 73.5111 148.233 69.167ZM164.338 89.1816C168.743 89.1816 173.074 86.2913 174.938 81.816C176.639 77.7343 178.34 73.6562 180.041 69.5814C181.831 65.3133 179.946 62.2469 175.552 62.2365C173.159 62.2434 170.769 62.2434 168.383 62.2365C164.656 71.2148 160.928 80.1965 157.201 89.1816C159.58 89.1816 161.959 89.1816 164.338 89.1816ZM173.36 67.437C174.8 67.4266 175.234 68.3901 174.715 69.6125C173.021 73.6527 171.33 77.6895 169.643 81.7228C169.029 83.1731 167.684 84.1365 166.403 84.1365C165.81 84.1365 165.213 84.1331 164.613 84.1262C166.922 78.5666 169.241 73.0001 171.57 67.4266C172.163 67.4335 172.76 67.437 173.36 67.437ZM194.103 80.9044C195.205 78.2523 194.389 76.3876 192.96 75.7246C195.057 74.7197 197.015 72.9897 197.937 70.7417C198.078 70.4447 198.216 70.1443 198.35 69.8404C200.266 65.2822 197.736 62.2469 193.521 62.2365C191.213 62.2365 188.908 62.2365 186.607 62.2365C182.844 71.2148 179.085 80.1999 175.329 89.192C177.765 89.192 180.2 89.1885 182.636 89.1816C187.051 89.192 191.7 86.5814 193.648 82.0128C193.796 81.6468 193.948 81.2773 194.103 80.9044ZM187.369 73.114C188.167 71.2148 188.968 69.319 189.773 67.4266C190.224 67.4335 190.68 67.4335 191.139 67.4266C192.621 67.4266 193.383 68.4315 192.738 69.9958C192.646 70.2375 192.55 70.4758 192.452 70.7106C191.837 72.1506 190.217 73.1037 188.735 73.1037C188.276 73.1037 187.821 73.1071 187.369 73.114ZM186.988 78.2938C188.481 78.2938 189.286 79.2365 188.671 80.6972C188.573 80.932 188.477 81.1668 188.385 81.4016C187.771 82.8519 186.066 84.0122 184.584 84.0019C183.984 84.0088 183.387 84.0122 182.795 84.0122C183.599 82.1061 184.401 80.1999 185.198 78.2938C185.798 78.2869 186.395 78.2869 186.988 78.2938Z" fill="black"/>
<path d="M30.0083 62.247L23.008 62.2366L17.8116 75.4488H23.008L17.4793 89.1921L30.5427 75.4488H24.8315L30.0083 62.247Z" fill="#44C81E"/>
<path d="M118.606 62.2472L111.606 62.2369L106.409 75.449H111.606L106.077 89.1923L119.141 75.449H113.429L118.606 62.2472Z" fill="#44C81E"/>
</svg>
