<svg width="287" height="55" viewBox="0 0 287 55" fill="none" xmlns="http://www.w3.org/2000/svg">
<path d="M282.442 37.2622C279.956 37.2622 278.678 38.8957 278.475 39.1493C277.846 37.9623 276.699 37.2622 275.177 37.2622C272.986 37.2622 271.748 38.5304 271.545 38.7435C271.454 38.3985 271.008 37.4753 269.597 37.4753C269.192 37.4753 268.593 37.6072 268.542 37.6173C268.603 37.8811 268.867 39.1797 268.867 40.9654V48.8282H271.738V40.8132C271.799 40.7624 272.874 39.6769 274.163 39.6769C275.451 39.6769 276.101 40.6407 276.101 41.9596V48.8282H278.992V40.8132C279.053 40.7624 280.108 39.6769 281.417 39.6769C282.726 39.6769 283.335 40.6407 283.335 41.9596V48.8282H286.236V41.5132C286.236 38.9464 284.775 37.2724 282.432 37.2724L282.442 37.2622Z" fill="#FF7A00"/>
<path d="M250.889 46.7382C248.931 46.7382 247.541 45.1961 247.541 43.1771C247.541 40.9248 249.124 39.5855 250.889 39.5855C251.843 39.5855 252.239 39.8798 252.868 39.8798C253.537 39.8798 253.902 39.5551 254.227 38.9058C254.41 38.5507 254.521 38.3376 254.521 38.3376C254.379 38.2463 252.918 37.2622 250.443 37.2622C246.821 37.2622 244.65 39.8595 244.65 43.1771C244.65 46.7991 247.125 49.0717 250.443 49.0717C252.847 49.0717 254.308 48.0876 254.562 47.9049L253.568 45.9367C253.344 46.0787 252.32 46.7382 250.889 46.7382Z" fill="#FF7A00"/>
<path d="M219.336 37.2622C216.577 37.2622 214.253 39.5044 214.253 43.1771C214.253 46.8498 216.505 49.0717 219.884 49.0717C222.562 49.0717 223.952 47.9049 224.115 47.7933C224.115 47.7933 223.851 47.3672 223.78 47.2455C223.405 46.6266 222.978 46.4338 222.502 46.4338C221.558 46.4338 221.436 46.8295 220.148 46.8295C217.946 46.8295 217.175 45.1048 217.124 43.9583H224.51V43.1061C224.51 39.5855 222.481 37.2622 219.346 37.2622H219.336ZM217.114 41.919C217.114 40.6305 218.017 39.4334 219.285 39.4334C220.706 39.4334 221.487 40.6711 221.517 41.919H217.114Z" fill="#FF7A00"/>
<path d="M229.431 45.6326V33.8637C229.431 32.5346 228.548 31.5099 227.169 31.5099H226.55V46.7892C226.55 48.1994 227.422 49.0719 228.934 49.0719C230.801 49.0719 231.359 47.7429 231.359 46.4949C231.278 46.5355 230.882 46.6979 230.486 46.6979C229.817 46.6979 229.421 46.3123 229.421 45.6427L229.431 45.6326Z" fill="#FF7A00"/>
<path d="M210.185 45.2369V39.6366H212.589L213.431 37.4755H210.185V34.0869C210.185 34.0869 209.931 34.0869 209.921 34.0869C208.643 34.0869 207.314 34.6348 207.314 37.4451V37.4755H205.183V39.6366H207.314V46.2312C207.314 48.098 208.42 49.072 209.982 49.072C211.25 49.072 212.884 48.6864 212.884 46.1805C212.782 46.2413 212.173 46.637 211.494 46.637C210.56 46.637 210.185 46.0689 210.185 45.2369Z" fill="#FF7A00"/>
<path d="M237.395 37.2622C234.636 37.2622 232.312 39.5044 232.312 43.1771C232.312 46.8498 234.565 49.0717 237.943 49.0717C240.622 49.0717 242.012 47.9049 242.174 47.7933C242.174 47.7933 241.91 47.3672 241.839 47.2455C241.464 46.6266 241.038 46.4338 240.561 46.4338C239.617 46.4338 239.496 46.8295 238.207 46.8295C236.005 46.8295 235.234 45.1048 235.184 43.9583H242.57V43.1061C242.57 39.5855 240.541 37.2622 237.395 37.2622ZM235.174 41.919C235.174 40.6305 236.077 39.4334 237.345 39.4334C238.765 39.4334 239.546 40.6711 239.577 41.919H235.174Z" fill="#FF7A00"/>
<path d="M261.166 49.0718C257.646 49.0718 255.525 46.7485 255.525 43.1671C255.525 39.5857 257.615 37.2522 261.166 37.2522C264.717 37.2522 266.817 39.606 266.817 43.1671C266.817 46.5354 264.89 49.0718 261.166 49.0718ZM261.166 46.8601C262.932 46.8601 263.946 45.3382 263.946 43.1772C263.946 41.0162 262.952 39.4842 261.166 39.4842C259.381 39.4842 258.386 40.9858 258.386 43.1772C258.386 45.3687 259.381 46.8601 261.166 46.8601Z" fill="#FF7A00"/>
<path d="M168.456 36.2376C166.721 35.4259 165.29 34.7665 165.29 33.4374C165.29 32.4228 166.102 31.6822 167.705 31.6822C168.294 31.6822 168.78 31.7532 169.278 31.8445C169.541 31.8851 169.815 31.9257 170.049 31.9257C171.449 31.9257 172.24 31.0938 172.768 29.5009L172.981 28.8516C172.758 28.7603 170.465 27.7559 167.482 27.7559C162.734 27.7559 160.228 30.7995 160.228 33.965C160.228 35.5578 160.725 36.7144 161.506 37.6275C162.511 38.7943 163.951 39.5653 165.29 40.2147C167.249 41.1785 169.014 41.8887 169.014 43.3091C169.014 44.5671 167.705 45.2875 165.97 45.2875C163.576 45.2875 161.496 43.9178 161.222 43.7555L159.264 47.4383C159.609 47.6311 162.145 49.2443 166.305 49.2443C170.739 49.2443 174.097 46.6977 174.097 42.7916C174.097 38.8856 170.982 37.4551 168.466 36.2376H168.456Z" fill="#EA002C"/>
<path d="M185.795 38.0537L193.84 28.1921H188.108L181.696 36.7043H181.604V28.1921H176.887V49.0718H177.171C179.21 49.0718 181.645 48.1283 181.645 44.7193V39.9205H181.736L188.27 48.808H194.276L185.795 38.0435V38.0537Z" fill="#EA002C"/>
<path d="M194.104 5.82141C192.44 6.13592 189.975 7.64762 189.985 10.3159C189.985 12.7407 191.973 14.2118 191.984 17.3874C191.984 19.7716 190.675 21.3848 189.254 22.2776C189.833 22.2269 190.462 22.1964 191.152 22.1964C192.602 22.1964 193.485 22.3283 193.536 22.3385L200.993 13.1871C198.923 10.0826 196.498 7.67806 194.104 5.83156V5.82141Z" fill="#EA002C"/>
<path d="M200.374 30.536C201.318 29.075 201.429 26.7416 201.51 24.3776C201.602 22.1659 202.058 20.502 205.021 20.4919C205.68 20.4919 206.299 20.5832 207.435 20.573C211.768 20.5527 214.608 19.0613 216.364 18.0772C212.762 15.7843 207.517 13.4407 200.993 13.1769C200.567 14.3741 197.27 23.5558 197.016 24.2965C197.056 24.337 197.635 24.9864 198.355 26.2546C199.42 27.9895 199.989 29.4606 200.374 30.536Z" fill="#EA002C"/>
<path d="M184.618 23.0384C184.242 23.0384 184.05 22.7949 183.999 22.3586C183.948 21.9223 182.081 4.85743 181.807 2.28045C181.767 1.90506 181.676 1.21516 181.676 0.96152C181.676 0.565841 181.929 0.352783 182.234 0.352783C183.116 0.352783 187.935 1.47895 193.049 5.06034C191.578 5.47631 188.909 7.0083 188.919 10.1839C188.919 12.9942 190.938 14.5363 190.949 17.3568C190.969 21.9325 185.703 23.0485 184.608 23.0485L184.618 23.0384Z" fill="#FF7A00"/>
<path d="M200.8 31.7534C200.881 31.9664 200.952 32.1491 201.033 32.2708C201.155 32.4737 201.307 32.565 201.49 32.565C201.611 32.565 201.753 32.5245 201.916 32.4534C202.311 32.2708 217.885 25.0268 220.229 23.9413C220.573 23.7789 221.213 23.4847 221.426 23.363C221.649 23.2412 221.75 23.0586 221.75 22.8658C221.75 22.7644 221.72 22.6528 221.659 22.5615C221.365 22.0846 219.863 20.4918 217.337 18.7366C215.338 19.8424 212.214 21.5368 207.567 21.557C206.431 21.557 206.167 21.486 205.396 21.486C203.123 21.486 202.565 22.46 202.474 24.4485C202.464 24.8239 202.453 25.3312 202.433 25.8892C202.362 27.6647 202.149 30.1199 200.79 31.7534H200.8Z" fill="#FF7A00"/>
<path d="M9.19563 36.2423C7.45727 35.4292 6.03003 34.7724 6.03003 33.4456C6.03003 32.4295 6.84349 31.6914 8.44689 31.6914C9.0375 31.6914 9.51999 31.7613 10.0194 31.8521C10.2805 31.8973 10.5578 31.9352 10.7876 31.9352C12.1899 31.9352 12.9813 31.0997 13.5079 29.5132L13.7249 28.866C13.5005 28.7748 11.2105 27.7682 8.22514 27.7682C3.47415 27.7682 0.966452 30.8158 0.967923 33.9759C0.967923 35.5704 1.46733 36.7267 2.24954 37.6372C3.25644 38.8059 4.69141 39.5716 6.0337 40.228C7.99162 41.1879 9.75719 41.8976 9.75719 43.3208C9.75866 44.5844 8.45351 45.3019 6.70853 45.3019C4.31741 45.3019 2.22894 43.9368 1.96306 43.772L0 47.4503C0.347893 47.6489 2.87619 49.2523 7.03693 49.2523C11.4698 49.2497 14.8274 46.7082 14.8274 42.7968C14.8274 38.906 11.7162 37.4633 9.19563 36.2423ZM26.5362 38.0587L34.5771 28.1989H28.8483L22.434 36.7079H22.3384V28.1992H17.6142L17.6168 49.0864H17.897C19.9388 49.0864 22.3689 48.1406 22.3689 44.7311V39.9349H22.4649L29.0035 48.8257H35.014L26.5362 38.0587ZM34.8452 5.82373C33.1819 6.13779 30.7172 7.64778 30.7264 10.3166C30.7312 12.74 32.7137 14.2099 32.72 17.3847C32.7292 19.7744 31.4123 21.3844 29.9876 22.2755C30.6193 22.2196 31.2532 22.1911 31.8874 22.1898C33.343 22.1861 34.22 22.3248 34.2741 22.334L41.734 13.1799C39.6624 10.0779 37.2426 7.67132 34.8452 5.8241" fill="#EA002C"/>
<path d="M41.1111 30.5443C42.0518 29.0825 42.1699 26.7524 42.2489 24.3808C42.3383 22.1662 42.7991 20.5003 45.761 20.49C46.4159 20.4889 47.0415 20.5782 48.1727 20.5757C52.5111 20.5573 55.3431 19.0631 57.105 18.0823C53.5058 15.7872 48.2517 13.4428 41.7337 13.1794C41.3082 14.3783 38.0054 23.5637 37.7546 24.3054C37.7925 24.3495 38.371 24.9968 39.0936 26.2618C40.1601 27.9991 40.7323 29.4705 41.1111 30.5447" fill="#EA002C"/>
<path d="M25.356 23.042C24.9783 23.0435 24.7904 22.793 24.7396 22.3583C24.006 15.6644 23.2757 8.97006 22.5485 2.2754C22.5081 1.89809 22.4147 1.20524 22.4136 0.958847C22.4121 0.561675 22.6717 0.354263 22.9762 0.352792C23.8599 0.349115 28.6782 1.47774 33.79 5.06222C32.316 5.47594 29.6528 7.00837 29.6642 10.1802C29.6745 12.9891 31.6842 14.5344 31.6945 17.3507C31.7115 21.9317 26.4456 23.0398 25.356 23.042ZM41.5396 31.7625C41.6202 31.9754 41.6952 32.1541 41.7717 32.2788C41.8897 32.4774 42.0416 32.5682 42.2314 32.5682C42.349 32.5671 42.4943 32.5267 42.6565 32.4542C43.05 32.2726 58.6268 25.022 60.9764 23.9386C61.3162 23.7753 61.9638 23.4859 62.1753 23.3612C62.3959 23.2354 62.4971 23.0523 62.4971 22.8655C62.4954 22.757 62.464 22.651 62.4062 22.5591C62.1117 22.0847 60.6054 20.485 58.0859 18.7374C56.0853 19.8389 52.9616 21.5423 48.3147 21.5603C47.1754 21.5629 46.9184 21.4864 46.1402 21.489C43.8723 21.4963 43.3052 22.4672 43.2225 24.456C43.2096 24.8322 43.2019 25.3368 43.1794 25.8921C43.1081 27.6694 42.8981 30.1208 41.5396 31.7625ZM65.8767 49.3682C64.1472 54.0427 61.9197 54.6473 60.0089 54.6473C58.6581 54.6473 57.6659 54.1648 57.5618 54.1115L58.2834 51.9241C58.3404 51.9535 59.0707 52.347 59.8831 52.347C61.4008 52.347 62.3529 51.5038 63.1951 48.8626C63.1951 48.8626 58.0355 37.6314 57.9745 37.4913C58.0693 37.4619 58.6868 37.2732 59.3914 37.2732C61.061 37.2732 61.4295 38.3162 61.859 39.358L64.6002 45.9665H64.6793L67.4338 37.491H70.2901L65.8767 49.3682ZM103.662 48.8067L99.6679 43.0047L103.579 37.3266H100.208L97.4865 41.4895C96.7532 40.3385 96.0618 39.2528 95.8477 38.9153C95.3027 38.0786 94.8122 37.2343 93.568 37.2589C93.3916 37.2618 93.2158 37.2809 93.0429 37.3159C92.3486 37.4431 91.7764 37.7414 91.6896 37.7855C91.7337 37.8554 93.6045 40.5073 95.3947 43.0863L91.4612 48.8063H94.828L97.5626 44.6287L100.298 48.8063L103.662 48.8067ZM72.6099 41.22V48.8251H75.4655V40.9202C75.621 40.7775 76.6371 39.8085 77.7617 39.8085C79.2305 39.8085 79.9918 40.8721 79.9918 42.2578V48.8251H82.8448V41.5428C82.8448 38.0867 80.1841 37.3211 78.6998 37.3211C76.9148 37.3211 75.6446 38.4464 75.2669 38.8196C75.1452 38.3566 74.6012 37.573 73.3546 37.573C72.9147 37.573 72.3403 37.7028 72.287 37.7171C72.3738 38.1467 72.6099 39.165 72.6099 41.22ZM89.2117 34.0514C89.2117 34.9947 88.4254 35.7588 87.4509 35.7588C86.4782 35.7588 85.6919 34.9947 85.6919 34.0514C85.6919 33.1044 86.4782 32.3362 87.4509 32.3362C88.4254 32.3362 89.2117 33.1044 89.2117 34.0514ZM88.8652 48.8089H86.0347V37.4843H88.8652V48.8089ZM48.8605 38.7921C49.0601 38.6247 50.5157 37.2729 52.5409 37.2729C54.757 37.2729 56.3913 38.4287 56.3913 41.2453V48.8254H53.4335V42.0559C53.4335 40.8092 52.7458 39.8427 51.4447 39.8427C50.2072 39.8427 49.1572 40.8195 48.8605 41.0648V48.8254H45.9232V31.5359H46.5458C47.9536 31.5359 48.8605 32.5594 48.8605 33.9227V38.7921Z" fill="#FF7A00"/>
<path d="M139.745 47.7278C139.285 48.3164 138.613 48.6119 137.943 48.6119C137.359 48.6119 136.776 48.3906 136.331 47.944L130.806 42.4192C130.603 42.216 130.273 42.216 130.069 42.4192L124.582 47.9062C123.771 48.7174 122.354 48.8203 121.475 48.0846C120.435 47.2135 120.384 45.6601 121.321 44.7226L126.846 39.1978C127.049 38.9947 127.049 38.6652 126.846 38.4608L121.36 32.9738C120.548 32.1626 120.446 30.7433 121.186 29.8644C122.058 28.8266 123.609 28.7771 124.545 29.7146L129.864 35.0337C130.271 35.4399 130.271 36.1001 129.864 36.5064L129.027 37.3436C128.284 38.0871 128.176 39.2837 128.833 40.104C129.611 41.0741 131.032 41.134 131.887 40.2785L132.762 39.4035C133.168 38.9973 133.828 38.9973 134.234 39.4035L139.516 44.6848C140.333 45.5025 140.456 46.8163 139.743 47.7278H139.745Z" fill="#E51837"/>
<path d="M139.554 32.9371C140.444 32.0472 140.444 30.6044 139.554 29.7145C138.664 28.8247 137.221 28.8247 136.331 29.7145L133.272 32.7732C132.383 33.663 132.383 35.1058 133.272 35.9957C134.162 36.8856 135.605 36.8856 136.495 35.9957L139.554 32.9371Z" fill="#E51837"/>
</svg>
