<svg width="238" height="48" viewBox="0 0 238 48" fill="none" xmlns="http://www.w3.org/2000/svg">
<path d="M234.091 30.5912C232.031 30.5912 230.972 31.945 230.804 32.1552C230.282 31.1714 229.332 30.5912 228.071 30.5912C226.254 30.5912 225.228 31.6423 225.06 31.8189C224.985 31.533 224.615 30.7678 223.446 30.7678C223.109 30.7678 222.613 30.8771 222.571 30.8855C222.622 31.1041 222.84 32.1804 222.84 33.6604V40.1772H225.22V33.5343C225.271 33.4922 226.162 32.5925 227.23 32.5925C228.298 32.5925 228.836 33.3913 228.836 34.4845V40.1772H231.232V33.5343C231.283 33.4922 232.157 32.5925 233.242 32.5925C234.327 32.5925 234.831 33.3913 234.831 34.4845V40.1772H237.236V34.1145C237.236 31.987 236.025 30.5996 234.083 30.5996L234.091 30.5912Z" fill="#FF7A00"/>
<path d="M207.94 38.445C206.317 38.445 205.165 37.1669 205.165 35.4935C205.165 33.6268 206.477 32.5168 207.94 32.5168C208.73 32.5168 209.058 32.7606 209.58 32.7606C210.135 32.7606 210.437 32.4916 210.706 31.9534C210.858 31.6591 210.95 31.4825 210.95 31.4825C210.833 31.4068 209.622 30.5912 207.57 30.5912C204.568 30.5912 202.769 32.7438 202.769 35.4935C202.769 38.4955 204.82 40.379 207.57 40.379C209.563 40.379 210.774 39.5634 210.984 39.412L210.16 37.7807C209.975 37.8984 209.126 38.445 207.94 38.445Z" fill="#FF7A00"/>
<path d="M181.788 30.5912C179.501 30.5912 177.576 32.4495 177.576 35.4935C177.576 38.5375 179.442 40.379 182.243 40.379C184.462 40.379 185.615 39.412 185.749 39.3195C185.749 39.3195 185.53 38.9664 185.472 38.8654C185.16 38.3525 184.807 38.1927 184.412 38.1927C183.63 38.1927 183.529 38.5207 182.461 38.5207C180.636 38.5207 179.997 37.0912 179.955 36.141H186.077V35.4346C186.077 32.5168 184.395 30.5912 181.797 30.5912H181.788ZM179.947 34.4508C179.947 33.3829 180.695 32.3907 181.746 32.3907C182.924 32.3907 183.571 33.4165 183.596 34.4508H179.947Z" fill="#FF7A00"/>
<path d="M190.155 37.5286V27.7744C190.155 26.6728 189.424 25.8236 188.28 25.8236H187.767V38.4872C187.767 39.656 188.49 40.3792 189.743 40.3792C191.291 40.3792 191.753 39.2776 191.753 38.2434C191.686 38.277 191.358 38.4115 191.03 38.4115C190.475 38.4115 190.147 38.092 190.147 37.537L190.155 37.5286Z" fill="#FF7A00"/>
<path d="M174.204 37.2006V32.5589H176.197L176.895 30.7679H174.204V27.9593C174.204 27.9593 173.994 27.9593 173.985 27.9593C172.926 27.9593 171.824 28.4134 171.824 30.7426V30.7679H170.058V32.5589H171.824V38.0247C171.824 39.5719 172.741 40.3791 174.036 40.3791C175.087 40.3791 176.441 40.0596 176.441 37.9826C176.356 38.0331 175.852 38.361 175.289 38.361C174.515 38.361 174.204 37.8901 174.204 37.2006Z" fill="#FF7A00"/>
<path d="M196.756 30.5912C194.469 30.5912 192.543 32.4495 192.543 35.4935C192.543 38.5375 194.41 40.379 197.21 40.379C199.43 40.379 200.582 39.412 200.717 39.3195C200.717 39.3195 200.498 38.9664 200.439 38.8654C200.128 38.3525 199.775 38.1927 199.38 38.1927C198.598 38.1927 198.497 38.5207 197.429 38.5207C195.604 38.5207 194.965 37.0912 194.923 36.141H201.045V35.4346C201.045 32.5168 199.363 30.5912 196.756 30.5912ZM194.915 34.4508C194.915 33.3829 195.663 32.3907 196.714 32.3907C197.891 32.3907 198.539 33.4165 198.564 34.4508H194.915Z" fill="#FF7A00"/>
<path d="M216.458 40.379C213.54 40.379 211.783 38.4534 211.783 35.4851C211.783 32.5167 213.515 30.5827 216.458 30.5827C219.401 30.5827 221.142 32.5336 221.142 35.4851C221.142 38.2768 219.544 40.379 216.458 40.379ZM216.458 38.5459C217.921 38.5459 218.762 37.2845 218.762 35.4935C218.762 33.7024 217.938 32.4327 216.458 32.4327C214.978 32.4327 214.154 33.6772 214.154 35.4935C214.154 37.3098 214.978 38.5459 216.458 38.5459Z" fill="#FF7A00"/>
<path d="M139.618 29.7419C138.18 29.0692 136.995 28.5226 136.995 27.4211C136.995 26.5802 137.668 25.9664 138.996 25.9664C139.484 25.9664 139.887 26.0252 140.299 26.1009C140.518 26.1345 140.745 26.1682 140.939 26.1682C142.099 26.1682 142.755 25.4786 143.192 24.1585L143.369 23.6203C143.184 23.5446 141.283 22.7121 138.811 22.7121C134.876 22.7121 132.799 25.2348 132.799 27.8583C132.799 29.1785 133.211 30.1371 133.858 30.8939C134.691 31.8609 135.885 32.5 136.995 33.0382C138.618 33.837 140.081 34.4256 140.081 35.6029C140.081 36.6455 138.996 37.2426 137.558 37.2426C135.574 37.2426 133.85 36.1074 133.623 35.9728L132 39.0252C132.286 39.185 134.388 40.522 137.836 40.522C141.51 40.522 144.294 38.4114 144.294 35.174C144.294 31.9366 141.712 30.751 139.627 29.7419H139.618Z" fill="#EA002C"/>
<path d="M153.989 31.247L160.657 23.0737H155.906L150.592 30.1287H150.516V23.0737H146.606V40.379H146.842C148.532 40.379 150.55 39.597 150.55 36.7716V32.7942H150.625L156.041 40.1604H161.019L153.989 31.2386V31.247Z" fill="#EA002C"/>
<path d="M160.876 4.53231C159.497 4.79298 157.454 6.04589 157.462 8.25741C157.462 10.2671 159.11 11.4864 159.119 14.1183C159.119 16.0944 158.034 17.4314 156.857 18.1714C157.336 18.1293 157.857 18.1041 158.429 18.1041C159.631 18.1041 160.363 18.2134 160.405 18.2218L166.586 10.6371C164.87 8.06401 162.86 6.07112 160.876 4.54072V4.53231Z" fill="#EA002C"/>
<path d="M166.073 25.0161C166.855 23.8052 166.947 21.8712 167.014 19.9119C167.09 18.0788 167.468 16.6998 169.924 16.6913C170.47 16.6913 170.983 16.767 171.925 16.7586C175.516 16.7418 177.87 15.5057 179.325 14.6901C176.34 12.7897 171.992 10.8472 166.586 10.6286C166.232 11.6208 163.5 19.2308 163.289 19.8447C163.323 19.8783 163.802 20.4165 164.399 21.4676C165.282 22.9055 165.753 24.1247 166.073 25.0161Z" fill="#EA002C"/>
<path d="M153.014 18.8021C152.702 18.8021 152.543 18.6003 152.501 18.2387C152.459 17.8771 150.911 3.73351 150.684 1.59767C150.651 1.28655 150.575 0.714749 150.575 0.504529C150.575 0.176585 150.785 0 151.037 0C151.769 0 155.763 0.933378 160.001 3.90169C158.782 4.24645 156.57 5.51618 156.579 8.14813C156.579 10.4774 158.252 11.7555 158.261 14.0932C158.277 17.8855 153.913 18.8105 153.005 18.8105L153.014 18.8021Z" fill="#FF7A00"/>
<path d="M166.426 26.0253C166.493 26.2019 166.552 26.3533 166.619 26.4542C166.72 26.6223 166.846 26.698 166.997 26.698C167.098 26.698 167.216 26.6644 167.35 26.6055C167.678 26.4542 180.586 20.4503 182.528 19.5505C182.814 19.416 183.344 19.1721 183.521 19.0712C183.706 18.9703 183.79 18.819 183.79 18.6592C183.79 18.5751 183.764 18.4826 183.714 18.4069C183.47 18.0117 182.226 16.6915 180.132 15.2368C178.475 16.1534 175.885 17.5577 172.034 17.5745C171.092 17.5745 170.874 17.5156 170.235 17.5156C168.351 17.5156 167.889 18.3229 167.813 19.971C167.805 20.2821 167.796 20.7025 167.779 21.165C167.72 22.6366 167.544 24.6715 166.417 26.0253H166.426Z" fill="#FF7A00"/>
<path d="M7.62146 29.7456C6.18068 29.0717 4.99776 28.5274 4.99776 27.4277C4.99776 26.5855 5.67198 25.9738 7.00089 25.9738C7.4904 25.9738 7.89029 26.0317 8.3042 26.107C8.52061 26.1445 8.75043 26.1759 8.94093 26.1759C10.1031 26.1759 10.759 25.4834 11.1955 24.1685L11.3753 23.632C11.1894 23.5564 9.29144 22.7222 6.8171 22.7222C2.87942 22.7222 0.801008 25.2481 0.802227 27.8672C0.802227 29.1888 1.21614 30.1471 1.86445 30.9017C2.69898 31.8704 3.8883 32.505 5.00081 33.049C6.62355 33.8446 8.08688 34.4328 8.08688 35.6124C8.0881 36.6597 7.00638 37.2543 5.56011 37.2543C3.57832 37.2543 1.84738 36.1229 1.62701 35.9864L0 39.035C0.288338 39.1995 2.38382 40.5285 5.8323 40.5285C9.50633 40.5263 12.2891 38.4199 12.2891 35.178C12.2891 31.9533 9.71054 30.7576 7.62146 29.7456ZM21.9936 31.251L28.658 23.0791H23.9098L18.5936 30.1315H18.5143V23.0794H14.5989L14.601 40.391H14.8333C16.5255 40.391 18.5396 39.6071 18.5396 36.7813V32.8061H18.6192L24.0385 40.1749H29.0201L21.9936 31.251ZM28.8802 4.53432C27.5016 4.79462 25.4588 6.04612 25.4664 8.25803C25.4704 10.2666 27.1136 11.4849 27.1187 14.1162C27.1264 16.0968 26.0349 17.4312 24.8541 18.1697C25.3777 18.1235 25.903 18.0998 26.4287 18.0987C27.6351 18.0957 28.362 18.2106 28.4068 18.2182L34.5896 10.6312C32.8727 8.06022 30.8671 6.06563 28.8802 4.53463" fill="#EA002C"/>
<path d="M34.0735 25.0231C34.8532 23.8115 34.951 21.8803 35.0166 19.9147C35.0906 18.0792 35.4725 16.6984 37.9274 16.6899C38.4702 16.689 38.9887 16.7631 39.9262 16.7609C43.5219 16.7457 45.8692 15.5073 47.3295 14.6944C44.3464 12.7922 39.9918 10.8491 34.5895 10.6308C34.2369 11.6245 31.4995 19.2374 31.2916 19.8522C31.323 19.8888 31.8025 20.4252 32.4014 21.4737C33.2853 22.9136 33.7596 24.1331 34.0735 25.0234" fill="#EA002C"/>
<path d="M21.0155 18.8051C20.7024 18.8063 20.5467 18.5987 20.5046 18.2385C19.8966 12.6904 19.2913 7.14211 18.6886 1.59349C18.6551 1.28077 18.5777 0.706528 18.5768 0.502314C18.5756 0.173132 18.7908 0.00122661 19.0431 7.41974e-06C19.7756 -0.00304055 23.769 0.932383 28.0057 3.90324C26.7841 4.24614 24.5767 5.51623 24.5862 8.14511C24.5947 10.4732 26.2604 11.7539 26.269 14.0881C26.283 17.8849 21.9186 18.8033 21.0155 18.8051ZM34.4287 26.0328C34.4954 26.2092 34.5576 26.3574 34.621 26.4607C34.7189 26.6253 34.8447 26.7006 35.002 26.7006C35.0996 26.6997 35.2199 26.6661 35.3544 26.6061C35.6805 26.4555 48.5908 20.4461 50.5382 19.5482C50.8198 19.4129 51.3565 19.173 51.5318 19.0697C51.7147 18.9654 51.7985 18.8136 51.7985 18.6588C51.7971 18.5689 51.7711 18.481 51.7232 18.4049C51.4791 18.0117 50.2306 16.6858 48.1424 15.2374C46.4843 16.1503 43.8954 17.5621 40.044 17.5771C39.0997 17.5792 38.8867 17.5158 38.2417 17.5179C36.362 17.524 35.892 18.3287 35.8234 19.977C35.8128 20.2888 35.8064 20.707 35.7878 21.1673C35.7287 22.6404 35.5546 24.6721 34.4287 26.0328ZM54.5996 40.6246C53.1661 44.4989 51.32 45 49.7362 45C48.6167 45 47.7944 44.6001 47.7081 44.5559L48.3061 42.743C48.3534 42.7674 48.9587 43.0935 49.632 43.0935C50.8899 43.0935 51.679 42.3946 52.377 40.2055C52.377 40.2055 48.1007 30.897 48.0501 30.7809C48.1287 30.7565 48.6405 30.6002 49.2245 30.6002C50.6083 30.6002 50.9137 31.4646 51.2697 32.328L53.5416 37.8053H53.6072L55.8901 30.7806H58.2575L54.5996 40.6246ZM85.9163 40.1592L82.6062 35.3504L85.8474 30.6443H83.0536L80.7981 34.0947C80.1904 33.1406 79.6173 32.2409 79.44 31.9611C78.9882 31.2677 78.5816 30.5678 77.5505 30.5883C77.4043 30.5906 77.2586 30.6065 77.1153 30.6355C76.5398 30.741 76.0655 30.9882 75.9936 31.0247C76.0302 31.0826 77.5807 33.2805 79.0644 35.4181L75.8043 40.1589H78.5948L80.8612 36.6964L83.128 40.1589L85.9163 40.1592ZM60.1801 33.8712V40.1744H62.5469V33.6228C62.6758 33.5046 63.518 32.7014 64.45 32.7014C65.6674 32.7014 66.2983 33.5829 66.2983 34.7314V40.1744H68.6629V34.1388C68.6629 31.2744 66.4577 30.6398 65.2276 30.6398C63.7481 30.6398 62.6953 31.5725 62.3823 31.8818C62.2814 31.4981 61.8306 30.8486 60.7973 30.8486C60.4328 30.8486 59.9567 30.9562 59.9125 30.968C59.9844 31.324 60.1801 32.168 60.1801 33.8712ZM73.9399 27.9298C73.9399 28.7116 73.2882 29.345 72.4805 29.345C71.6743 29.345 71.0227 28.7116 71.0227 27.9298C71.0227 27.145 71.6743 26.5082 72.4805 26.5082C73.2882 26.5082 73.9399 27.145 73.9399 27.9298ZM73.6528 40.161H71.3067V30.7751H73.6528V40.161ZM40.4963 31.859C40.6618 31.7203 41.8682 30.5998 43.5467 30.5998C45.3834 30.5998 46.7379 31.5578 46.7379 33.8923V40.1748H44.2865V34.564C44.2865 33.5308 43.7165 32.7298 42.6381 32.7298C41.6125 32.7298 40.7423 33.5393 40.4963 33.7426V40.1748H38.0619V25.845H38.5779C39.7447 25.845 40.4963 26.6933 40.4963 27.8231V31.859Z" fill="#FF7A00"/>
<rect x="116.13" y="24.13" width="1.75362" height="21.9203" transform="rotate(45 116.13 24.13)" fill="#FF7A00"/>
<rect x="100.63" y="25.37" width="1.75362" height="21.9203" transform="rotate(-45 100.63 25.37)" fill="#FF7A00"/>
</svg>
