<svg width="106" height="41" viewBox="0 0 106 41" fill="none" xmlns="http://www.w3.org/2000/svg">
<path d="M102.091 30.5911C100.031 30.5911 98.9717 31.9449 98.8035 32.1551C98.2822 31.1713 97.332 30.5911 96.0707 30.5911C94.2544 30.5911 93.2285 31.6422 93.0603 31.8187C92.9846 31.5329 92.6147 30.7676 91.4458 30.7676C91.1095 30.7676 90.6134 30.877 90.5713 30.8854C90.6218 31.104 90.8404 32.1803 90.8404 33.6603V40.1771H93.2201V33.5341C93.2705 33.4921 94.1619 32.5924 95.2298 32.5924C96.2977 32.5924 96.8359 33.3912 96.8359 34.4843V40.1771H99.2324V33.5341C99.2828 33.4921 100.157 32.5924 101.242 32.5924C102.327 32.5924 102.831 33.3912 102.831 34.4843V40.1771H105.236V34.1144C105.236 31.9869 104.025 30.5995 102.083 30.5995L102.091 30.5911Z" fill="#FF7A00"/>
<path d="M75.94 38.4449C74.3171 38.4449 73.1651 37.1667 73.1651 35.4934C73.1651 33.6266 74.4769 32.5167 75.94 32.5167C76.7305 32.5167 77.0584 32.7605 77.5797 32.7605C78.1347 32.7605 78.4374 32.4915 78.7065 31.9533C78.8579 31.659 78.9504 31.4824 78.9504 31.4824C78.8327 31.4067 77.6218 30.5911 75.57 30.5911C72.5681 30.5911 70.7686 32.7437 70.7686 35.4934C70.7686 38.4953 72.8204 40.3789 75.57 40.3789C77.5629 40.3789 78.7738 39.5633 78.984 39.4119L78.16 37.7806C77.975 37.8983 77.1257 38.4449 75.94 38.4449Z" fill="#FF7A00"/>
<path d="M49.7885 30.5911C47.5013 30.5911 45.5757 32.4494 45.5757 35.4934C45.5757 38.5374 47.4424 40.3789 50.2426 40.3789C52.4625 40.3789 53.6145 39.4119 53.749 39.3194C53.749 39.3194 53.5304 38.9662 53.4716 38.8653C53.1604 38.3524 52.8073 38.1926 52.412 38.1926C51.63 38.1926 51.5291 38.5206 50.4612 38.5206C48.6365 38.5206 47.9974 37.0911 47.9554 36.1409H54.077V35.4345C54.077 32.5167 52.3952 30.5911 49.7969 30.5911H49.7885ZM47.947 34.4507C47.947 33.3828 48.6954 32.3905 49.7465 32.3905C50.9237 32.3905 51.5712 33.4164 51.5964 34.4507H47.947Z" fill="#FF7A00"/>
<path d="M58.1554 37.5285V27.7743C58.1554 26.6728 57.4239 25.8235 56.2803 25.8235H55.7673V38.4872C55.7673 39.656 56.4905 40.3791 57.7434 40.3791C59.2906 40.3791 59.7531 39.2776 59.7531 38.2433C59.6858 38.2769 59.3579 38.4115 59.0299 38.4115C58.475 38.4115 58.147 38.0919 58.147 37.537L58.1554 37.5285Z" fill="#FF7A00"/>
<path d="M42.2039 37.2005V32.5588H44.1968L44.8947 30.7678H42.2039V27.9592C42.2039 27.9592 41.9936 27.9592 41.9852 27.9592C40.9257 27.9592 39.8242 28.4133 39.8242 30.7425V30.7678H38.0583V32.5588H39.8242V38.0246C39.8242 39.5718 40.7407 40.379 42.0357 40.379C43.0868 40.379 44.4406 40.0595 44.4406 37.9825C44.3565 38.033 43.852 38.3609 43.2886 38.3609C42.515 38.3609 42.2039 37.89 42.2039 37.2005Z" fill="#FF7A00"/>
<path d="M64.7563 30.5911C62.4691 30.5911 60.5435 32.4494 60.5435 35.4934C60.5435 38.5374 62.4102 40.3789 65.2104 40.3789C67.4303 40.3789 68.5823 39.4119 68.7168 39.3194C68.7168 39.3194 68.4982 38.9662 68.4394 38.8653C68.1282 38.3524 67.7751 38.1926 67.3798 38.1926C66.5978 38.1926 66.4969 38.5206 65.429 38.5206C63.6043 38.5206 62.9652 37.0911 62.9232 36.1409H69.0448V35.4345C69.0448 32.5167 67.363 30.5911 64.7563 30.5911ZM62.9148 34.4507C62.9148 33.3828 63.6632 32.3905 64.7143 32.3905C65.8915 32.3905 66.539 33.4164 66.5642 34.4507H62.9148Z" fill="#FF7A00"/>
<path d="M84.458 40.379C81.5402 40.379 79.7827 38.4534 79.7827 35.4851C79.7827 32.5168 81.515 30.5828 84.458 30.5828C87.4011 30.5828 89.1418 32.5336 89.1418 35.4851C89.1418 38.2768 87.5441 40.379 84.458 40.379ZM84.458 38.5459C85.9212 38.5459 86.7621 37.2846 86.7621 35.4935C86.7621 33.7024 85.938 32.4327 84.458 32.4327C82.9781 32.4327 82.154 33.6772 82.154 35.4935C82.154 37.3098 82.9781 38.5459 84.458 38.5459Z" fill="#FF7A00"/>
<path d="M7.61838 29.7419C6.18047 29.0692 4.99483 28.5226 4.99483 27.4211C4.99483 26.5802 5.66754 25.9664 6.99613 25.9664C7.48384 25.9664 7.88746 26.0252 8.29949 26.1009C8.51812 26.1345 8.74516 26.1682 8.93856 26.1682C10.099 26.1682 10.7549 25.4787 11.1921 24.1585L11.3687 23.6203C11.1837 23.5446 9.28332 22.7122 6.81113 22.7122C2.87581 22.7122 0.798837 25.2348 0.798837 27.8583C0.798837 29.1785 1.21087 30.1371 1.85835 30.8939C2.69082 31.8609 3.88487 32.5 4.99483 33.0382C6.61773 33.837 8.08086 34.4256 8.08086 35.6029C8.08086 36.6456 6.99613 37.2426 5.55822 37.2426C3.57374 37.2426 1.84994 36.1074 1.6229 35.9728L0 39.0252C0.285899 39.185 2.3881 40.522 5.83571 40.522C9.51036 40.522 12.2937 38.4114 12.2937 35.174C12.2937 31.9366 9.71217 30.751 7.62679 29.7419H7.61838Z" fill="#EA002C"/>
<path d="M21.989 31.2471L28.6572 23.0737H23.9062L18.5918 30.1287H18.5161V23.0737H14.606V40.3791H14.8415C16.5317 40.3791 18.5498 39.597 18.5498 36.7717V32.7943H18.6255L24.0407 40.1604H29.0187L21.989 31.2387V31.2471Z" fill="#EA002C"/>
<path d="M28.8759 4.53247C27.4969 4.79314 25.4535 6.04606 25.4619 8.25757C25.4619 10.2673 27.1101 11.4866 27.1185 14.1185C27.1185 16.0946 26.0337 17.4316 24.8565 18.1716C25.3358 18.1295 25.8572 18.1043 26.429 18.1043C27.6314 18.1043 28.363 18.2136 28.405 18.222L34.5855 10.6373C32.8701 8.06417 30.8604 6.07128 28.8759 4.54088V4.53247Z" fill="#EA002C"/>
<path d="M34.0726 25.0161C34.8546 23.8053 34.9471 21.8712 35.0144 19.912C35.0901 18.0789 35.4685 16.6998 37.9239 16.6914C38.4704 16.6914 38.9834 16.7671 39.9252 16.7587C43.5157 16.7419 45.8702 15.5058 47.3249 14.6901C44.3398 12.7897 39.9924 10.8473 34.5856 10.6287C34.2324 11.6209 31.4995 19.2309 31.2893 19.8447C31.3229 19.8784 31.8022 20.4165 32.3993 21.4676C33.2822 22.9055 33.7531 24.1248 34.0726 25.0161Z" fill="#EA002C"/>
<path d="M21.0136 18.8021C20.7024 18.8021 20.5427 18.6003 20.5006 18.2387C20.4586 17.8771 18.9114 3.73351 18.6843 1.59767C18.6507 1.28655 18.575 0.714749 18.575 0.504529C18.575 0.176585 18.7852 0 19.0375 0C19.7691 0 23.7632 0.933378 28.0013 3.90169C26.782 4.24645 24.5705 5.51618 24.5789 8.14813C24.5789 10.4774 26.2523 11.7555 26.2607 14.0932C26.2775 17.8855 21.9133 18.8105 21.0052 18.8105L21.0136 18.8021Z" fill="#FF7A00"/>
<path d="M34.4256 26.0253C34.4928 26.2019 34.5517 26.3533 34.619 26.4542C34.7199 26.6223 34.846 26.698 34.9974 26.698C35.0983 26.698 35.216 26.6644 35.3505 26.6055C35.6785 26.4542 48.586 20.4503 50.5284 19.5505C50.8143 19.416 51.3441 19.1721 51.5207 19.0712C51.7057 18.9703 51.7897 18.819 51.7897 18.6592C51.7897 18.5751 51.7645 18.4826 51.7141 18.4069C51.4702 18.0117 50.2257 16.6915 48.1319 15.2368C46.4754 16.1534 43.8855 17.5576 40.0342 17.5745C39.0924 17.5745 38.8738 17.5156 38.2347 17.5156C36.3512 17.5156 35.8887 18.3228 35.813 19.971C35.8046 20.2821 35.7962 20.7025 35.7794 21.165C35.7205 22.6366 35.5439 24.6715 34.4171 26.0253H34.4256Z" fill="#FF7A00"/>
</svg>
