<svg width="14" height="9" viewBox="0 0 14 9" fill="none" xmlns="http://www.w3.org/2000/svg">
<path d="M13.9998 4.05478L7.0245 8.10851L0.00183105 4.05478L6.97816 0L13.9998 4.05478Z" fill="#707985"/>
<path d="M14 4.05493L13.9979 4.31086L7.02258 8.36458L7.02469 8.10866L14 4.05493Z" fill="#636A78"/>
<path d="M7.02478 8.10866L7.02267 8.36458L0 4.31086L0.00210683 4.05493L7.02478 8.10866Z" fill="#9CA0A8"/>
<path d="M13.117 3.76217L7.0211 7.3051L0.884155 3.76217L6.98107 0.219238L13.117 3.76217Z" fill="#64686D"/>
<path d="M13.1173 3.76221L13.1162 4.03498L7.01929 7.57791L7.0214 7.30514L13.1173 3.76221Z" fill="#363D46"/>
<path d="M7.02178 7.30514L7.01967 7.57791L0.883789 4.03498L0.884842 3.76221L7.02178 7.30514Z" fill="#545D68"/>
<path d="M9.45272 3.41968C9.87109 3.682 10.0674 3.97496 10.1554 4.20281C9.97257 4.17217 9.6844 4.12048 9.39145 3.95389C9.31581 3.90985 9.28039 3.88305 9.23635 3.8572C9.03818 3.74327 8.89553 3.79018 8.74235 3.87156C8.57959 3.96059 8.41684 4.0458 8.25696 4.06591C8.30195 4.00942 8.36323 3.93092 8.40631 3.82273C8.44173 3.74614 8.44556 3.69827 8.44652 3.6954C8.51258 3.67625 9.34454 3.44936 9.45272 3.41968Z" fill="white"/>
<path d="M9.05037 2.19928C9.10973 2.23375 9.35673 2.46256 9.46109 2.79955C9.33567 2.75839 9.05516 2.71531 8.84454 2.83785C8.65881 2.94699 8.6904 3.08485 8.50371 3.19399C8.20023 3.37206 7.77419 3.21123 7.70048 3.1691C7.67463 3.15474 7.67941 3.13751 7.70431 3.11836C7.73016 3.10017 8.74019 2.36874 8.89337 2.25768C8.91634 2.24141 8.95559 2.21173 8.97187 2.2012C8.99868 2.18588 9.03027 2.18779 9.05037 2.19928Z" fill="white"/>
<path d="M7.97434 3.7232L6.7805 3.79405L6.6321 4.53793L6.23001 4.30529L6.38414 3.70884L6.3784 3.70501L6.05959 3.89074C5.8327 4.02286 5.60675 3.96446 5.47081 3.88596L5.45166 3.87543L6.84081 3.06836L7.15674 3.25122L6.59094 3.58055L6.59764 3.58438L7.59235 3.50301L7.9753 3.72416L7.97434 3.7232Z" fill="white"/>
<path d="M6.23959 2.68847C6.43968 2.80431 6.52585 2.93164 6.53446 2.94313L6.47702 2.9594C6.33629 3.00057 6.2281 3.00249 6.13428 2.94791C6.11801 2.93834 6.10269 2.92685 6.08737 2.91441C6.06056 2.89143 6.03184 2.87037 5.99259 2.84739C5.88536 2.78516 5.78101 2.78229 5.71399 2.82154C5.62592 2.87228 5.67857 2.95366 5.73984 3.05227C5.82696 3.19683 5.93993 3.37299 5.68049 3.5233C5.42104 3.6736 5.0266 3.64297 4.72981 3.4716C4.45313 3.31172 4.38994 3.15184 4.38037 3.13077L4.75566 3.06471C4.76332 3.08099 4.81215 3.21502 4.97203 3.30693C5.08883 3.37395 5.22382 3.39692 5.30807 3.3481C5.40285 3.29257 5.33104 3.19779 5.26499 3.08482C5.21807 3.00823 5.17308 2.92302 5.18361 2.83877C5.19222 2.77367 5.23531 2.70953 5.34158 2.64826C5.55124 2.52571 5.9227 2.50561 6.24055 2.68847H6.23959Z" fill="white"/>
<path d="M10.1782 4.26614C10.2299 4.43081 10.2251 4.55144 10.2127 4.58112C10.2098 4.58686 10.205 4.59165 10.1983 4.59643C10.1859 4.60409 10.1667 4.60696 10.1428 4.60313C10.1208 4.59931 10.0576 4.5859 10.0241 4.5792C9.79526 4.53037 8.27017 4.2087 8.23187 4.20008C8.21559 4.19625 8.20315 4.19242 8.19549 4.18763C8.18304 4.18093 8.17921 4.17136 8.184 4.15891C8.18783 4.15125 8.19453 4.14168 8.20315 4.13019C8.40228 4.11966 8.58035 4.03254 8.7029 3.96648C8.74215 3.94638 8.7747 3.92627 8.80151 3.91287C8.93841 3.83915 9.04181 3.82383 9.19403 3.91191C9.21988 3.92627 9.2352 3.93776 9.2553 3.95021C9.27062 3.96074 9.28785 3.97127 9.31562 3.98754C9.32136 3.99137 9.32806 3.9952 9.33572 3.99903C9.64783 4.17806 9.97046 4.23263 10.1773 4.26805L10.1782 4.26614Z" fill="white"/>
<path d="M9.48133 2.86941C9.51867 3.03312 9.52058 3.21981 9.45261 3.4199L8.34493 3.485C8.34493 3.485 8.29227 3.44383 8.19558 3.38735C8.14866 3.36054 8.10462 3.33756 8.0625 3.31746C8.21759 3.33756 8.41194 3.32703 8.57087 3.23417C8.78149 3.11067 8.74607 2.97759 8.90786 2.88377C9.08498 2.78037 9.35017 2.81771 9.48229 2.86941H9.48133Z" fill="white"/>
</svg>
