<svg width="14" height="12" viewBox="0 0 14 12" fill="none" xmlns="http://www.w3.org/2000/svg">
<path d="M4.34177 1.91064C3.7605 2.02052 2.89923 2.54862 2.90277 3.48078C2.90277 4.32787 3.59746 4.8418 3.60101 5.95117C3.60101 6.78409 3.14379 7.34764 2.64758 7.65954C2.84961 7.64182 3.06936 7.63118 3.31037 7.63118C3.81721 7.63118 4.12557 7.67726 4.14329 7.6808L6.74837 4.48382C6.02532 3.39926 5.17823 2.55926 4.34177 1.91419V1.91064Z" fill="#EA002C"/>
<path d="M6.53218 10.5446C6.8618 10.0342 6.90079 9.21899 6.92914 8.39316C6.96104 7.6205 7.12054 7.03923 8.15548 7.03568C8.38586 7.03568 8.60207 7.06758 8.99903 7.06404C10.5125 7.05695 11.5049 6.53593 12.118 6.19213C10.8598 5.39112 9.02738 4.57238 6.74838 4.48022C6.59952 4.89845 5.44762 8.10607 5.35901 8.3648C5.37319 8.37898 5.57521 8.60582 5.82686 9.04886C6.19901 9.65494 6.3975 10.1689 6.53218 10.5446Z" fill="#EA002C"/>
<path d="M1.02785 7.92511C0.896714 7.92511 0.829371 7.84004 0.81165 7.68764C0.793928 7.53523 0.141773 1.57368 0.0460759 0.673422C0.0318986 0.542282 0 0.301268 0 0.212659C0 0.0744308 0.0886078 0 0.194937 0C0.503294 0 2.18685 0.39342 3.97319 1.64457C3.45926 1.78988 2.5271 2.32508 2.53065 3.43445C2.53065 4.41623 3.23597 4.95497 3.23951 5.94029C3.2466 7.53878 1.4071 7.92865 1.02431 7.92865L1.02785 7.92511Z" fill="#FF7A00"/>
<path d="M6.68091 10.9697C6.70927 11.0442 6.73408 11.108 6.76243 11.1505C6.80496 11.2214 6.85813 11.2533 6.92193 11.2533C6.96446 11.2533 7.01408 11.2391 7.07079 11.2143C7.20902 11.1505 12.6496 8.61984 13.4683 8.2406C13.5888 8.18389 13.8121 8.08111 13.8865 8.03857C13.9645 7.99604 13.9999 7.93225 13.9999 7.8649C13.9999 7.82946 13.9893 7.79047 13.968 7.75857C13.8653 7.59199 13.3407 7.03553 12.4582 6.42236C11.7599 6.80869 10.6683 7.4006 9.04498 7.40768C8.64801 7.40768 8.55586 7.38287 8.28649 7.38287C7.49256 7.38287 7.29762 7.72313 7.26573 8.41782C7.26218 8.54896 7.25864 8.72617 7.25155 8.92111C7.22674 9.54137 7.15231 10.3991 6.67737 10.9697H6.68091Z" fill="#FF7A00"/>
</svg>
